<?xml version="1.0" encoding="UTF-8" standalone="no"?>
<svg
   xmlns:dc="http://purl.org/dc/elements/1.1/"
   xmlns:cc="http://creativecommons.org/ns#"
   xmlns:rdf="http://www.w3.org/1999/02/22-rdf-syntax-ns#"
   xmlns:svg="http://www.w3.org/2000/svg"
   xmlns="http://www.w3.org/2000/svg"
   xmlns:sodipodi="http://sodipodi.sourceforge.net/DTD/sodipodi-0.dtd"
   xmlns:inkscape="http://www.inkscape.org/namespaces/inkscape"
   version="1.1"
   x="0px"
   y="0px"
   viewBox="0 0 100 67"
   enable-background="new 0 0 100 100"
   xml:space="preserve"
   id="svg34"
   sodipodi:docname="fibonacci.svg"
   width="100"
   height="67"
   inkscape:version="0.92.4 (5da689c313, 2019-01-14)"><metadata
     id="metadata40"><rdf:RDF><cc:Work
         rdf:about=""><dc:format>image/svg+xml</dc:format><dc:type
           rdf:resource="http://purl.org/dc/dcmitype/StillImage" /><dc:title /></cc:Work></rdf:RDF></metadata><defs
     id="defs38" /><sodipodi:namedview
     pagecolor="#ffffff"
     bordercolor="#666666"
     borderopacity="1"
     objecttolerance="10"
     gridtolerance="10"
     guidetolerance="10"
     inkscape:pageopacity="0"
     inkscape:pageshadow="2"
     inkscape:window-width="1920"
     inkscape:window-height="1016"
     id="namedview36"
     showgrid="false"
     inkscape:zoom="2.6700352"
     inkscape:cx="-95.345415"
     inkscape:cy="43.289986"
     inkscape:window-x="0"
     inkscape:window-y="27"
     inkscape:window-maximized="1"
     inkscape:current-layer="svg34" /><g
     id="g4"
     transform="translate(0.3745269,-16.052987)"
     style="fill:#ffffff"><path
       d="M 61.3,78.9 H 3.5 V 21.1 H 61.2 V 78.9 Z M 5,77.4 H 59.9 V 22.6 H 5 Z"
       id="path2"
       inkscape:connector-curvature="0"
       style="fill:#ffffff" /></g><g
     id="g8"
     transform="translate(0.3745269,-16.052987)"
     style="fill:#ffffff"><path
       d="M 96.5,57.7 H 59.8 V 21.1 H 96.4 V 57.7 Z M 61.3,56.3 H 95 V 22.6 H 61.3 Z"
       id="path6"
       inkscape:connector-curvature="0"
       style="fill:#ffffff" /></g><g
     id="g12"
     transform="translate(0.3745269,-16.052987)"
     style="fill:#ffffff"><path
       d="M 96.5,78.9 H 73.9 V 56.3 H 96.4 V 78.9 Z M 75.3,77.4 H 95 V 57.7 H 75.3 Z"
       id="path10"
       inkscape:connector-curvature="0"
       style="fill:#ffffff" /></g><g
     id="g16"
     transform="translate(0.3745269,-16.052987)"
     style="fill:#ffffff"><path
       d="m 75.3,64.8 h -8.5 v -8.5 h 8.5 z m -7,-1.4 h 5.6 v -5.6 h -5.6 z"
       id="path14"
       inkscape:connector-curvature="0"
       style="fill:#ffffff" /></g><g
     id="g20"
     transform="translate(0.3745269,-16.052987)"
     style="fill:#ffffff"><path
       d="m 68.3,64.8 h -8.5 v -8.5 h 8.5 z m -7,-1.4 h 5.6 v -5.6 h -5.6 z"
       id="path18"
       inkscape:connector-curvature="0"
       style="fill:#ffffff" /></g><g
     id="g24"
     transform="translate(0.3745269,-16.052987)"
     style="fill:#ffffff"><path
       d="M 75.3,78.9 H 59.8 V 63.4 h 15.5 z m -14,-1.5 H 74 V 64.8 H 61.3 Z"
       id="path22"
       inkscape:connector-curvature="0"
       style="fill:#ffffff" /></g><g
     id="g28"
     transform="translate(0.3745269,-16.052987)"
     style="fill:#ffffff"><path
       d="M 74.6,78.9 C 74,78.9 68,78.8 63.8,74.7 61.2,72.1 59.9,68.6 59.9,64.2 c 0,-0.1 0.1,-7.7 7.7,-7.7 0.1,0 7.7,0.2 7.7,7.7 h -1.4 c 0,-6.2 -6.1,-6.3 -6.3,-6.3 -6.2,0 -6.3,6.1 -6.3,6.3 0,4 1.2,7.2 3.5,9.5 3.9,3.9 9.8,3.8 9.9,3.8 C 94.8,77.4 95,57.9 95,57 95,56.9 94.9,48.2 90.7,39.7 85,28.3 74.8,22.6 60.6,22.6 37.6,22.6 21.2,31.9 12,50.3 5,64 5,78 5,78.2 H 3.5 c 0,-0.1 0.1,-14.4 7.1,-28.5 6.5,-13 20.5,-28.5 49.9,-28.5 35.5,-0.1 36,35.5 36,35.8 0,0.3 -0.3,21.9 -21.9,21.9 0,0 0,0 0,0 z"
       id="path26"
       inkscape:connector-curvature="0"
       style="fill:#ffffff" /></g></svg>