<?xml version="1.0" encoding="UTF-8" standalone="no"?>
<!-- Created with Inkscape (http://www.inkscape.org/) -->

<svg
   xmlns:osb="http://www.openswatchbook.org/uri/2009/osb"
   xmlns:dc="http://purl.org/dc/elements/1.1/"
   xmlns:cc="http://creativecommons.org/ns#"
   xmlns:rdf="http://www.w3.org/1999/02/22-rdf-syntax-ns#"
   xmlns:svg="http://www.w3.org/2000/svg"
   xmlns="http://www.w3.org/2000/svg"
   xmlns:xlink="http://www.w3.org/1999/xlink"
   xmlns:sodipodi="http://sodipodi.sourceforge.net/DTD/sodipodi-0.dtd"
   xmlns:inkscape="http://www.inkscape.org/namespaces/inkscape"
   width="800"
   height="533"
   viewBox="0 0 211.66667 141.02291"
   version="1.1"
   id="svg8"
   sodipodi:docname="fibonacci.svg"
   inkscape:version="0.92.4 (5da689c313, 2019-01-14)"
   inkscape:export-filename="/home/canuto/Documents/Repos/clement-canuto.github.io/assets/img/portfolio/png/ttango.png"
   inkscape:export-xdpi="96"
   inkscape:export-ydpi="96">
  <defs
     id="defs2">
    <linearGradient
       inkscape:collect="always"
       id="linearGradient2095">
      <stop
         style="stop-color:#aaffee;stop-opacity:1;"
         offset="0"
         id="stop2091" />
      <stop
         style="stop-color:#aaffee;stop-opacity:0;"
         offset="1"
         id="stop2093" />
    </linearGradient>
    <inkscape:perspective
       sodipodi:type="inkscape:persp3d"
       inkscape:vp_x="36.040169 : 180.89227 : 1"
       inkscape:vp_y="0 : 999.99998 : 0"
       inkscape:vp_z="377.10964 : 188.7993 : 1"
       inkscape:persp3d-origin="148.5 : 69.999998 : 1"
       id="perspective4016" />
    <linearGradient
       inkscape:collect="always"
       id="linearGradient2351-2">
      <stop
         id="stop2349"
         offset="0"
         style="stop-color:#161650;stop-opacity:0;" />
      <stop
         id="stop2347"
         offset="1"
         style="stop-color:#161650;stop-opacity:1" />
    </linearGradient>
    <linearGradient
       id="linearGradient2288"
       osb:paint="solid">
      <stop
         style="stop-color:#161650;stop-opacity:1;"
         offset="0"
         id="stop2286" />
    </linearGradient>
    <radialGradient
       inkscape:collect="always"
       xlink:href="#linearGradient2351-2"
       id="radialGradient2355"
       cx="234.94948"
       cy="138.57697"
       fx="234.94948"
       fy="138.57697"
       r="150.18564"
       gradientTransform="matrix(0.24026089,0.38472414,-0.30745238,0.19200455,207.05677,22.144781)"
       gradientUnits="userSpaceOnUse" />
    <linearGradient
       inkscape:collect="always"
       xlink:href="#linearGradient2095"
       id="linearGradient2097"
       x1="168.28853"
       y1="175.41521"
       x2="167.81203"
       y2="136.3428"
       gradientUnits="userSpaceOnUse" />
    <path
       style="fill:none;stroke:none;stroke-width:0.26458332px;stroke-linecap:butt;stroke-linejoin:miter;stroke-opacity:1"
       d="m 185.27618,104.37774 c 0.0425,-0.23829 -2.56376,-42.812197 -2.56376,-42.812197"
       id="path3103-7"
       inkscape:connector-curvature="0" />
    <path
       style="fill:none;stroke:none;stroke-width:0.26458332px;stroke-linecap:butt;stroke-linejoin:miter;stroke-opacity:1"
       d="m 185.27618,104.37774 c 0.0425,-0.23829 -2.56376,-42.812197 -2.56376,-42.812197"
       id="path3103-7-4"
       inkscape:connector-curvature="0" />
  </defs>
  <sodipodi:namedview
     id="base"
     pagecolor="#ffffff"
     bordercolor="#666666"
     borderopacity="1.0"
     inkscape:pageopacity="1"
     inkscape:pageshadow="2"
     inkscape:zoom="0.60148271"
     inkscape:cx="118.06219"
     inkscape:cy="-61.218666"
     inkscape:document-units="mm"
     inkscape:current-layer="svg8"
     showgrid="false"
     inkscape:window-width="1920"
     inkscape:window-height="1016"
     inkscape:window-x="0"
     inkscape:window-y="27"
     inkscape:window-maximized="1"
     units="px" />
  <metadata
     id="metadata5">
    <rdf:RDF>
      <cc:Work
         rdf:about="">
        <dc:format>image/svg+xml</dc:format>
        <dc:type
           rdf:resource="http://purl.org/dc/dcmitype/StillImage" />
        <dc:title />
      </cc:Work>
    </rdf:RDF>
  </metadata>
  <g
     id="g969"
     transform="matrix(2.2275119,0,0,2.2275119,-6.4174683,-6.0243916)">
    <g
       style="fill:#ffffff"
       transform="translate(0.3745269,-16.052987)"
       id="g4">
      <path
         style="fill:#ffffff"
         inkscape:connector-curvature="0"
         id="path2"
         d="M 61.3,78.9 H 3.5 V 21.1 H 61.2 V 78.9 Z M 5,77.4 H 59.9 V 22.6 H 5 Z" />
    </g>
    <g
       style="fill:#ffffff"
       transform="translate(0.3745269,-16.052987)"
       id="g8">
      <path
         style="fill:#ffffff"
         inkscape:connector-curvature="0"
         id="path6"
         d="M 96.5,57.7 H 59.8 V 21.1 H 96.4 V 57.7 Z M 61.3,56.3 H 95 V 22.6 H 61.3 Z" />
    </g>
    <g
       style="fill:#ffffff"
       transform="translate(0.3745269,-16.052987)"
       id="g12">
      <path
         style="fill:#ffffff"
         inkscape:connector-curvature="0"
         id="path10"
         d="M 96.5,78.9 H 73.9 V 56.3 H 96.4 V 78.9 Z M 75.3,77.4 H 95 V 57.7 H 75.3 Z" />
    </g>
    <g
       style="fill:#ffffff"
       transform="translate(0.3745269,-16.052987)"
       id="g16">
      <path
         style="fill:#ffffff"
         inkscape:connector-curvature="0"
         id="path14"
         d="m 75.3,64.8 h -8.5 v -8.5 h 8.5 z m -7,-1.4 h 5.6 v -5.6 h -5.6 z" />
    </g>
    <g
       style="fill:#ffffff"
       transform="translate(0.3745269,-16.052987)"
       id="g20">
      <path
         style="fill:#ffffff"
         inkscape:connector-curvature="0"
         id="path18"
         d="m 68.3,64.8 h -8.5 v -8.5 h 8.5 z m -7,-1.4 h 5.6 v -5.6 h -5.6 z" />
    </g>
    <g
       style="fill:#ffffff"
       transform="translate(0.3745269,-16.052987)"
       id="g24">
      <path
         style="fill:#ffffff"
         inkscape:connector-curvature="0"
         id="path22"
         d="M 75.3,78.9 H 59.8 V 63.4 h 15.5 z m -14,-1.5 H 74 V 64.8 H 61.3 Z" />
    </g>
    <g
       style="fill:#ffffff"
       transform="translate(0.3745269,-16.052987)"
       id="g28">
      <path
         style="fill:#ffffff"
         inkscape:connector-curvature="0"
         id="path26"
         d="M 74.6,78.9 C 74,78.9 68,78.8 63.8,74.7 61.2,72.1 59.9,68.6 59.9,64.2 c 0,-0.1 0.1,-7.7 7.7,-7.7 0.1,0 7.7,0.2 7.7,7.7 h -1.4 c 0,-6.2 -6.1,-6.3 -6.3,-6.3 -6.2,0 -6.3,6.1 -6.3,6.3 0,4 1.2,7.2 3.5,9.5 3.9,3.9 9.8,3.8 9.9,3.8 C 94.8,77.4 95,57.9 95,57 95,56.9 94.9,48.2 90.7,39.7 85,28.3 74.8,22.6 60.6,22.6 37.6,22.6 21.2,31.9 12,50.3 5,64 5,78 5,78.2 H 3.5 c 0,-0.1 0.1,-14.4 7.1,-28.5 6.5,-13 20.5,-28.5 49.9,-28.5 35.5,-0.1 36,35.5 36,35.8 0,0.3 -0.3,21.9 -21.9,21.9 0,0 0,0 0,0 z" />
    </g>
  </g>
</svg>
