<?xml version="1.0" encoding="UTF-8" standalone="no"?>
<!-- Created with Inkscape (http://www.inkscape.org/) -->

<svg
   xmlns:dc="http://purl.org/dc/elements/1.1/"
   xmlns:cc="http://creativecommons.org/ns#"
   xmlns:rdf="http://www.w3.org/1999/02/22-rdf-syntax-ns#"
   xmlns:svg="http://www.w3.org/2000/svg"
   xmlns="http://www.w3.org/2000/svg"
   xmlns:xlink="http://www.w3.org/1999/xlink"
   xmlns:sodipodi="http://sodipodi.sourceforge.net/DTD/sodipodi-0.dtd"
   xmlns:inkscape="http://www.inkscape.org/namespaces/inkscape"
   width="200"
   height="200"
   viewBox="0 0 52.916666 52.916666"
   version="1.1"
   id="svg8"
   inkscape:version="0.92.4 (5da689c313, 2019-01-14)"
   sodipodi:docname="identite_visuelle.svg"
   inkscape:export-filename="/home/canuto/Documents/Repos/clement-canuto.github.io/assets/img/svg/identite_visuelle.png"
   inkscape:export-xdpi="96"
   inkscape:export-ydpi="96">
  <defs
     id="defs2">
    <linearGradient
       id="linearGradient907"
       inkscape:collect="always">
      <stop
         id="stop903"
         offset="0"
         style="stop-color:#7f70f5;stop-opacity:1;" />
      <stop
         id="stop905"
         offset="1"
         style="stop-color:#7f70f5;stop-opacity:0.00949367" />
    </linearGradient>
    <linearGradient
       inkscape:collect="always"
       id="linearGradient859">
      <stop
         style="stop-color:#0ea0ff;stop-opacity:1;"
         offset="0"
         id="stop855" />
      <stop
         style="stop-color:#0ea0ff;stop-opacity:0;"
         offset="1"
         id="stop857" />
    </linearGradient>
    <linearGradient
       inkscape:collect="always"
       id="linearGradient849">
      <stop
         style="stop-color:#7f70f5;stop-opacity:1;"
         offset="0"
         id="stop845" />
      <stop
         style="stop-color:#7f70f5;stop-opacity:0;"
         offset="1"
         id="stop847" />
    </linearGradient>
    <linearGradient
       inkscape:collect="always"
       xlink:href="#linearGradient849"
       id="linearGradient851"
       x1="36.833172"
       y1="134.73373"
       x2="130.06924"
       y2="149.34029"
       gradientUnits="userSpaceOnUse"
       gradientTransform="matrix(0.44684702,0,0,0.44684702,-13.510499,207.13889)" />
    <linearGradient
       inkscape:collect="always"
       xlink:href="#linearGradient859"
       id="linearGradient861"
       x1="98.951401"
       y1="120.00108"
       x2="41.95105"
       y2="242.55312"
       gradientUnits="userSpaceOnUse"
       gradientTransform="matrix(0.30072192,-0.13112206,0.13112206,0.30072192,-24.047663,231.31205)" />
    <filter
       inkscape:collect="always"
       style="color-interpolation-filters:sRGB"
       id="filter1039"
       x="-0.048"
       width="1.096"
       y="-0.048"
       height="1.096">
      <feGaussianBlur
         inkscape:collect="always"
         stdDeviation="1.0757597"
         id="feGaussianBlur1041" />
    </filter>
    <linearGradient
       inkscape:collect="always"
       xlink:href="#linearGradient907"
       id="linearGradient885"
       gradientUnits="userSpaceOnUse"
       gradientTransform="matrix(-0.44684702,0,0,0.44684702,85.177601,208.49995)"
       x1="63.873402"
       y1="94.797394"
       x2="166.81004"
       y2="286.17606" />
    <filter
       inkscape:collect="always"
       style="color-interpolation-filters:sRGB"
       id="filter899"
       x="-0.048405722"
       width="1.0968114"
       y="-0.047601023"
       height="1.095202">
      <feGaussianBlur
         inkscape:collect="always"
         stdDeviation="0.83692059"
         id="feGaussianBlur901" />
    </filter>
    <filter
       inkscape:collect="always"
       style="color-interpolation-filters:sRGB"
       id="filter917"
       x="-0.040760851"
       width="1.0815217"
       y="-0.058365797"
       height="1.1167316">
      <feGaussianBlur
         inkscape:collect="always"
         stdDeviation="0.78963827"
         id="feGaussianBlur919" />
    </filter>
    <linearGradient
       inkscape:collect="always"
       xlink:href="#linearGradient907"
       id="linearGradient1074"
       gradientUnits="userSpaceOnUse"
       gradientTransform="matrix(-0.37587542,0,0,0.37587542,59.342422,226.77672)"
       x1="63.873402"
       y1="94.797394"
       x2="166.81004"
       y2="286.17606" />
  </defs>
  <sodipodi:namedview
     id="base"
     pagecolor="#ffffff"
     bordercolor="#666666"
     borderopacity="1.0"
     inkscape:pageopacity="0.0"
     inkscape:pageshadow="2"
     inkscape:zoom="1.1783938"
     inkscape:cx="212.24183"
     inkscape:cy="286.67266"
     inkscape:document-units="mm"
     inkscape:current-layer="g996"
     showgrid="false"
     inkscape:window-width="1920"
     inkscape:window-height="1016"
     inkscape:window-x="0"
     inkscape:window-y="27"
     inkscape:window-maximized="1"
     inkscape:pagecheckerboard="true"
     showguides="false"
     units="px" />
  <metadata
     id="metadata5">
    <rdf:RDF>
      <cc:Work
         rdf:about="">
        <dc:format>image/svg+xml</dc:format>
        <dc:type
           rdf:resource="http://purl.org/dc/dcmitype/StillImage" />
        <dc:title />
      </cc:Work>
    </rdf:RDF>
  </metadata>
  <g
     inkscape:label="forme"
     inkscape:groupmode="layer"
     id="layer1"
     transform="translate(0,-244.08333)">
    <path
       style="opacity:0.5;fill:#000000;fill-opacity:1;stroke:none;stroke-width:0.10318994px;stroke-linecap:butt;stroke-linejoin:miter;stroke-opacity:1;filter:url(#filter917)"
       d="m 40.168279,282.12661 c -9.744897,0.0771 -19.537282,3.70015 -23.650072,-1.81156 -11.3263394,-15.17887 2.676275,-38.06582 30.508217,-22.2433 16.832427,8.02568 15.971955,34.34154 -2.237186,25.23333 -1.844982,-0.92286 -3.277072,-1.13895 -4.620959,-1.17847 z"
       id="path911"
       inkscape:connector-curvature="0"
       sodipodi:nodetypes="cscsc"
       transform="matrix(0.84117252,0,0,0.84117252,-9.2084661,37.884303)" />
    <path
       sodipodi:nodetypes="cscsc"
       inkscape:connector-curvature="0"
       id="path909"
       d="m 25.470228,273.86609 c -8.19714,0.0649 -16.4342249,3.11245 -19.8937905,-1.52384 -9.5274063,-12.76805 2.2512084,-32.01992 25.6626735,-18.71046 14.158975,6.75099 13.43517,28.88717 -1.88186,21.22559 -1.551947,-0.77629 -2.756583,-0.95805 -3.887023,-0.99129 z"
       style="fill:#ffffff;fill-opacity:1;stroke:none;stroke-width:0.08680054px;stroke-linecap:butt;stroke-linejoin:miter;stroke-opacity:1" />
    <path
       style="opacity:0.5;fill:#000000;fill-opacity:1;stroke:none;stroke-width:0.11822827px;stroke-linecap:butt;stroke-linejoin:miter;stroke-opacity:1;filter:url(#filter899)"
       d="m 50.615329,248.4718 c 0,0 31.888757,-8.42006 17.560463,25.7968 -10.568562,25.23838 -41.135851,16.13853 -37.494159,-2.50706 2.657419,-13.60608 19.844021,-3.12525 19.933696,-23.28974 z"
       id="path889"
       inkscape:connector-curvature="0"
       sodipodi:nodetypes="cssc"
       transform="matrix(0.84117252,0,0,0.84117252,-12.306632,51.392305)" />
    <path
       style="fill:url(#linearGradient861);fill-opacity:1;stroke:none;stroke-width:0.08680054px;stroke-linecap:butt;stroke-linejoin:miter;stroke-opacity:1"
       d="m 25.470228,273.86609 c -8.19714,0.0649 -16.4342249,3.11245 -19.8937905,-1.52384 -9.5274063,-12.76805 2.2512084,-32.01992 25.6626735,-18.71046 14.158975,6.75099 13.43517,28.88717 -1.88186,21.22559 -1.551947,-0.77629 -2.756583,-0.95805 -3.887023,-0.99129 z"
       id="path853"
       inkscape:connector-curvature="0"
       sodipodi:nodetypes="cscsc" />
    <path
       sodipodi:nodetypes="cssc"
       inkscape:connector-curvature="0"
       id="path887"
       d="m 30.714714,259.06458 c 0,0 26.823945,-7.08272 14.771378,21.69956 -8.889984,21.22984 -34.602347,13.57529 -31.539056,-2.10887 2.235348,-11.44506 16.692246,-2.62888 16.767678,-19.59069 z"
       style="fill:#ffffff;fill-opacity:1;stroke:none;stroke-width:0.09945037px;stroke-linecap:butt;stroke-linejoin:miter;stroke-opacity:1" />
    <path
       style="fill:url(#linearGradient1074);fill-opacity:1;stroke:none;stroke-width:0.09945037px;stroke-linecap:butt;stroke-linejoin:miter;stroke-opacity:1"
       d="m 30.714714,259.06458 c 0,0 26.823945,-7.08272 14.771378,21.69956 -8.889984,21.22984 -34.602347,13.57529 -31.539056,-2.10887 2.235348,-11.44506 16.692246,-2.62888 16.767678,-19.59069 z"
       id="path815"
       inkscape:connector-curvature="0"
       sodipodi:nodetypes="cssc" />
  </g>
  <g
     inkscape:groupmode="layer"
     id="layer3"
     inkscape:label="carre"
     style="display:inline">
    <g
       transform="matrix(0.84117252,0,0,0.84117252,23.63432,-160.73215)"
       id="g852">
      <g
         id="g924"
         transform="translate(-19.979493,-46.969333)">
        <g
           transform="matrix(1.1976624,0,0,1.1776127,-0.56904703,-40.197261)"
           id="g847">
          <rect
             transform="matrix(0.44684703,0,0,0.44684703,-13.510499,207.13888)"
             style="opacity:0.5;fill:#000000;fill-opacity:1;stroke:none;stroke-width:0.20401672;stroke-linecap:round;stroke-linejoin:round;stroke-miterlimit:4;stroke-dasharray:none;stroke-opacity:1;paint-order:stroke fill markers;filter:url(#filter1039)"
             id="rect917"
             width="53.787987"
             height="53.787987"
             x="59.50864"
             y="102.43671" />
        </g>
        <rect
           style="opacity:1;fill:#000000;fill-opacity:1;stroke:none;stroke-width:0.10821978;stroke-linecap:round;stroke-linejoin:round;stroke-miterlimit:4;stroke-dasharray:none;stroke-opacity:1;paint-order:stroke fill markers"
           id="rect907"
           width="28.531603"
           height="28.531603"
           x="16.196558"
           y="256.30988" />
      </g>
    </g>
    <g
       id="g1036"
       transform="matrix(0.26458333,0,0,0.26458333,24.002108,7.0228948)">
      <g
         id="g1018"
         style="fill:#ffffff" />
    </g>
  </g>
  <g
     inkscape:groupmode="layer"
     id="layer2"
     inkscape:label="fingerprint"
     transform="translate(0,-244.08333)">
    <g
       id="g996"
       transform="matrix(0.26458333,0,0,0.26458333,0.12956639,259.99386)">
      <g
         id="g967"
         transform="matrix(3.1392113,0,0,3.1392113,83.695935,6.5767487)"
         style="fill:#ffffff">
        <g
           id="g965"
           style="fill:#ffffff">
          <path
             id="path943"
             d="M 7.21,1.954 C 8.588,1.321 10.2,1 12.001,1 13.79,1 15.402,1.321 16.794,1.955 16.861,1.986 16.932,2 17.001,2 17.191,2 17.373,1.891 17.457,1.707 17.571,1.456 17.46,1.159 17.209,1.045 15.686,0.352 13.934,0 12.001,0 10.054,0 8.301,0.352 6.792,1.046 6.542,1.161 6.432,1.458 6.547,1.709 6.663,1.959 6.958,2.069 7.21,1.954 Z"
             inkscape:connector-curvature="0"
             style="fill:#ffffff" />
          <path
             id="path945"
             d="M 5.357,5.852 C 7.2,3.986 9.496,3 11.999,3 14.512,3 16.811,3.986 18.645,5.851 18.743,5.95 18.872,6 19.001,6 19.127,6 19.254,5.952 19.352,5.856 19.549,5.662 19.552,5.346 19.358,5.149 17.331,3.089 14.786,2 11.999,2 9.223,2 6.68,3.089 4.646,5.148 4.452,5.345 4.454,5.662 4.65,5.856 4.847,6.05 5.163,6.047 5.357,5.852 Z"
             inkscape:connector-curvature="0"
             style="fill:#ffffff" />
          <path
             id="path947"
             d="M 11.999,4 C 11.286,4 10.578,4.088 9.894,4.262 9.626,4.33 9.464,4.602 9.532,4.87 9.6,5.138 9.874,5.298 10.14,5.231 10.743,5.078 11.369,5 11.999,5 c 4.136,0 7.5,3.364 7.5,7.5 0,0.276 0.224,0.5 0.5,0.5 0.276,0 0.5,-0.224 0.5,-0.5 0,-4.687 -3.813,-8.5 -8.5,-8.5 z"
             inkscape:connector-curvature="0"
             style="fill:#ffffff" />
          <path
             id="path949"
             d="M 4.501,12.508 C 4.533,10.488 5.307,8.611 6.682,7.221 7.15,6.747 7.673,6.341 8.236,6.012 8.474,5.873 8.554,5.567 8.415,5.328 8.277,5.091 7.972,5.01 7.731,5.149 7.093,5.522 6.5,5.983 5.971,6.519 4.414,8.093 3.537,10.214 3.501,12.493 3.497,12.769 3.717,12.996 3.994,13 c 0.002,0 0.005,0 0.008,0 0.272,0 0.495,-0.218 0.499,-0.492 z"
             inkscape:connector-curvature="0"
             style="fill:#ffffff" />
          <path
             id="path951"
             d="M 6.5,12.623 C 6.5,11.092 7.069,9.674 8.104,8.628 9.142,7.578 10.524,7 11.999,7 c 1.587,0 3.099,0.689 4.146,1.891 0.181,0.208 0.498,0.229 0.706,0.048 C 17.059,8.757 17.08,8.441 16.899,8.233 15.661,6.814 13.875,6 11.999,6 10.255,6 8.62,6.684 7.394,7.925 6.172,9.159 5.5,10.828 5.5,12.649 5.503,13.725 5.167,15.015 4.565,16.254 l -0.281,0.5 c -0.135,0.241 -0.05,0.545 0.191,0.681 0.078,0.044 0.162,0.065 0.245,0.065 0.175,0 0.345,-0.092 0.436,-0.255 L 5.451,16.719 C 6.142,15.297 6.504,13.889 6.5,12.623 Z"
             inkscape:connector-curvature="0"
             style="fill:#ffffff" />
          <path
             id="path953"
             d="M 18.865,16.419 C 18.548,14.972 18.521,13.591 18.504,12.765 L 18.499,12.5 c 0,-0.741 -0.125,-1.469 -0.371,-2.164 -0.092,-0.26 -0.375,-0.396 -0.638,-0.304 -0.26,0.092 -0.396,0.377 -0.304,0.638 0.208,0.587 0.313,1.203 0.313,1.843 l 0.006,0.272 c 0.018,0.862 0.046,2.305 0.394,3.886 l 0.572,1.884 c 0.065,0.216 0.264,0.354 0.479,0.354 0.048,0 0.097,-0.007 0.146,-0.021 0.264,-0.081 0.413,-0.359 0.333,-0.624 z"
             inkscape:connector-curvature="0"
             style="fill:#ffffff" />
          <path
             id="path955"
             d="M 17.505,19.085 C 16.68,16.509 16.526,13.613 16.499,12.5 16.499,10.019 14.48,8 11.999,8 9.518,8 7.5,10.05 7.5,12.587 7.502,13.113 7.405,15.892 5.293,18.938 5.135,19.165 5.192,19.477 5.418,19.634 5.644,19.791 5.957,19.735 6.114,19.509 8.34,16.3 8.503,13.397 8.5,12.571 c 0,-1.969 1.57,-3.57 3.499,-3.57 1.93,0 3.5,1.57 3.5,3.512 0.036,1.452 0.221,4.276 1.053,6.875 l 0.462,1.483 c 0.067,0.214 0.264,0.351 0.478,0.351 0.049,0 0.099,-0.007 0.149,-0.022 0.264,-0.083 0.411,-0.363 0.329,-0.626 z"
             inkscape:connector-curvature="0"
             style="fill:#ffffff" />
          <path
             id="path957"
             d="m 14.499,12.5 c 0,-1.378 -1.122,-2.5 -2.5,-2.5 -1.378,0 -2.5,1.122 -2.5,2.519 0.006,0.165 0.117,4.093 -3.059,8.226 -0.168,0.219 -0.127,0.533 0.092,0.701 0.22,0.169 0.533,0.126 0.701,-0.092 3.393,-4.416 3.271,-8.693 3.265,-8.854 0,-0.827 0.673,-1.5 1.5,-1.5 0.827,0 1.5,0.673 1.501,1.511 0.014,0.56 0.017,5.612 -3.887,10.684 -0.168,0.219 -0.128,0.533 0.091,0.701 0.092,0.07 0.199,0.104 0.305,0.104 0.15,0 0.298,-0.067 0.396,-0.195 4.121,-5.352 4.109,-10.722 4.095,-11.305 z"
             inkscape:connector-curvature="0"
             style="fill:#ffffff" />
          <path
             id="path959"
             d="m 11.755,14.992 c 0.027,0.004 0.054,0.006 0.08,0.006 0.241,0 0.454,-0.175 0.493,-0.42 0.204,-1.269 0.171,-2.067 0.169,-2.1 -0.013,-0.275 -0.229,-0.494 -0.521,-0.477 -0.275,0.012 -0.489,0.245 -0.478,0.521 0,0.007 0.028,0.739 -0.158,1.896 -0.043,0.273 0.143,0.53 0.415,0.574 z"
             inkscape:connector-curvature="0"
             style="fill:#ffffff" />
          <path
             id="path961"
             d="m 11.516,16.035 c -0.266,-0.079 -0.543,0.073 -0.622,0.337 -0.625,2.111 -1.665,4.085 -3.089,5.869 -0.172,0.216 -0.137,0.53 0.079,0.703 0.092,0.074 0.202,0.109 0.312,0.109 0.147,0 0.292,-0.064 0.391,-0.188 1.505,-1.884 2.604,-3.973 3.267,-6.208 0.078,-0.265 -0.073,-0.544 -0.338,-0.622 z"
             inkscape:connector-curvature="0"
             style="fill:#ffffff" />
          <path
             id="path963"
             d="m 15.759,20.111 c -0.24,-0.718 -0.464,-1.477 -0.465,-1.48 -0.06,-0.203 -0.24,-0.346 -0.451,-0.358 -0.216,-0.015 -0.407,0.109 -0.489,0.304 -0.011,0.026 -1.125,2.645 -2.402,4.655 -0.148,0.233 -0.079,0.542 0.154,0.69 0.083,0.053 0.176,0.078 0.268,0.078 0.166,0 0.327,-0.082 0.422,-0.232 0.773,-1.217 1.475,-2.616 1.933,-3.589 0.026,0.08 0.053,0.161 0.08,0.241 l 0.599,1.906 c 0.083,0.263 0.361,0.411 0.627,0.327 0.263,-0.083 0.41,-0.363 0.327,-0.627 z"
             inkscape:connector-curvature="0"
             style="fill:#ffffff" />
        </g>
      </g>
    </g>
  </g>
</svg>
