<?xml version="1.0" encoding="UTF-8" standalone="no"?>
<!-- Created with Inkscape (http://www.inkscape.org/) -->

<svg
   xmlns:osb="http://www.openswatchbook.org/uri/2009/osb"
   xmlns:dc="http://purl.org/dc/elements/1.1/"
   xmlns:cc="http://creativecommons.org/ns#"
   xmlns:rdf="http://www.w3.org/1999/02/22-rdf-syntax-ns#"
   xmlns:svg="http://www.w3.org/2000/svg"
   xmlns="http://www.w3.org/2000/svg"
   xmlns:xlink="http://www.w3.org/1999/xlink"
   xmlns:sodipodi="http://sodipodi.sourceforge.net/DTD/sodipodi-0.dtd"
   xmlns:inkscape="http://www.inkscape.org/namespaces/inkscape"
   width="800"
   height="533"
   viewBox="0 0 211.66667 141.02291"
   version="1.1"
   id="svg8"
   sodipodi:docname="nautilushell.svg"
   inkscape:version="0.92.4 (5da689c313, 2019-01-14)"
   inkscape:export-filename="/home/canuto/Documents/Repos/clement-canuto.github.io/assets/img/portfolio/png/nautilushell.png"
   inkscape:export-xdpi="96"
   inkscape:export-ydpi="96">
  <defs
     id="defs2">
    <linearGradient
       inkscape:collect="always"
       id="linearGradient1486">
      <stop
         style="stop-color:#7f70f5;stop-opacity:1;"
         offset="0"
         id="stop1482" />
      <stop
         style="stop-color:#0ea0ff;stop-opacity:1"
         offset="1"
         id="stop1484" />
    </linearGradient>
    <linearGradient
       inkscape:collect="always"
       id="linearGradient1476">
      <stop
         style="stop-color:#7f70f5;stop-opacity:1;"
         offset="0"
         id="stop1472" />
      <stop
         style="stop-color:#0ea0ff;stop-opacity:1"
         offset="1"
         id="stop1474" />
    </linearGradient>
    <linearGradient
       inkscape:collect="always"
       id="linearGradient1466">
      <stop
         style="stop-color:#7f70f5;stop-opacity:1;"
         offset="0"
         id="stop1462" />
      <stop
         style="stop-color:#0ea0ff;stop-opacity:1"
         offset="1"
         id="stop1464" />
    </linearGradient>
    <linearGradient
       inkscape:collect="always"
       id="linearGradient2095">
      <stop
         style="stop-color:#aaffee;stop-opacity:1;"
         offset="0"
         id="stop2091" />
      <stop
         style="stop-color:#aaffee;stop-opacity:0;"
         offset="1"
         id="stop2093" />
    </linearGradient>
    <inkscape:perspective
       sodipodi:type="inkscape:persp3d"
       inkscape:vp_x="36.040169 : 180.89227 : 1"
       inkscape:vp_y="0 : 999.99998 : 0"
       inkscape:vp_z="377.10964 : 188.7993 : 1"
       inkscape:persp3d-origin="148.5 : 69.999998 : 1"
       id="perspective4016" />
    <linearGradient
       inkscape:collect="always"
       id="linearGradient2351-2">
      <stop
         id="stop2349"
         offset="0"
         style="stop-color:#161650;stop-opacity:0;" />
      <stop
         id="stop2347"
         offset="1"
         style="stop-color:#161650;stop-opacity:1" />
    </linearGradient>
    <linearGradient
       id="linearGradient2288"
       osb:paint="solid">
      <stop
         style="stop-color:#161650;stop-opacity:1;"
         offset="0"
         id="stop2286" />
    </linearGradient>
    <radialGradient
       inkscape:collect="always"
       xlink:href="#linearGradient2351-2"
       id="radialGradient2355"
       cx="234.94948"
       cy="138.57697"
       fx="234.94948"
       fy="138.57697"
       r="150.18564"
       gradientTransform="matrix(0.24026089,0.38472414,-0.30745238,0.19200455,207.05677,22.144781)"
       gradientUnits="userSpaceOnUse" />
    <linearGradient
       inkscape:collect="always"
       xlink:href="#linearGradient2095"
       id="linearGradient2097"
       x1="168.28853"
       y1="175.41521"
       x2="167.81203"
       y2="136.3428"
       gradientUnits="userSpaceOnUse" />
    <path
       style="fill:none;stroke:none;stroke-width:0.26458332px;stroke-linecap:butt;stroke-linejoin:miter;stroke-opacity:1"
       d="m 185.27618,104.37774 c 0.0425,-0.23829 -2.56376,-42.812197 -2.56376,-42.812197"
       id="path3103-7"
       inkscape:connector-curvature="0" />
    <path
       style="fill:none;stroke:none;stroke-width:0.26458332px;stroke-linecap:butt;stroke-linejoin:miter;stroke-opacity:1"
       d="m 185.27618,104.37774 c 0.0425,-0.23829 -2.56376,-42.812197 -2.56376,-42.812197"
       id="path3103-7-4"
       inkscape:connector-curvature="0" />
    <linearGradient
       inkscape:collect="always"
       xlink:href="#linearGradient1466"
       id="linearGradient1468"
       x1="239.64172"
       y1="43.95285"
       x2="-52.916676"
       y2="37.211872"
       gradientUnits="userSpaceOnUse" />
    <linearGradient
       inkscape:collect="always"
       xlink:href="#linearGradient1476"
       id="linearGradient1478"
       x1="-1.712208"
       y1="89.454443"
       x2="122.8312"
       y2="89.454443"
       gradientUnits="userSpaceOnUse" />
    <linearGradient
       inkscape:collect="always"
       xlink:href="#linearGradient1486"
       id="linearGradient1488"
       x1="143.91985"
       y1="207.92711"
       x2="158.74998"
       y2="25.583689"
       gradientUnits="userSpaceOnUse"
       gradientTransform="translate(-0.52916667)" />
    <filter
       inkscape:collect="always"
       style="color-interpolation-filters:sRGB"
       id="filter1113"
       x="-0.039375052"
       width="1.0787501"
       y="-0.061463288"
       height="1.1229266">
      <feGaussianBlur
         inkscape:collect="always"
         stdDeviation="3.3456136"
         id="feGaussianBlur1115" />
    </filter>
    <linearGradient
       inkscape:collect="always"
       xlink:href="#linearGradient1476"
       id="linearGradient1171"
       gradientUnits="userSpaceOnUse"
       x1="-1.712208"
       y1="89.454443"
       x2="122.8312"
       y2="89.454443" />
    <linearGradient
       inkscape:collect="always"
       xlink:href="#linearGradient1466"
       id="linearGradient1174"
       gradientUnits="userSpaceOnUse"
       x1="239.64172"
       y1="43.95285"
       x2="-52.916676"
       y2="37.211872" />
  </defs>
  <sodipodi:namedview
     id="base"
     pagecolor="#ffffff"
     bordercolor="#666666"
     borderopacity="1.0"
     inkscape:pageopacity="1"
     inkscape:pageshadow="2"
     inkscape:zoom="1.1101576"
     inkscape:cx="289.286"
     inkscape:cy="204.98295"
     inkscape:document-units="mm"
     inkscape:current-layer="layer3"
     showgrid="false"
     inkscape:window-width="1920"
     inkscape:window-height="1016"
     inkscape:window-x="0"
     inkscape:window-y="27"
     inkscape:window-maximized="1"
     units="px" />
  <metadata
     id="metadata5">
    <rdf:RDF>
      <cc:Work
         rdf:about="">
        <dc:format>image/svg+xml</dc:format>
        <dc:type
           rdf:resource="http://purl.org/dc/dcmitype/StillImage" />
        <dc:title />
      </cc:Work>
    </rdf:RDF>
  </metadata>
  <g
     inkscape:groupmode="layer"
     id="layer1"
     inkscape:label="Colors">
    <g
       id="g905"
       transform="matrix(-1.0015359,0,0,0.98430494,212.94437,0.31909886)">
      <path
         style="fill:url(#linearGradient1488);fill-opacity:1;stroke:none;stroke-width:0.26458332px;stroke-linecap:butt;stroke-linejoin:miter;stroke-opacity:1"
         d="m 126.19652,68.145113 c -8.64936,26.314892 -17.29873,52.629787 -25.94809,78.944677 38.31122,0.33705 76.62243,0.6741 114.93365,1.01115 -0.11252,-16.33548 -0.22505,-32.67096 -0.33757,-49.00644 C 185.29518,88.778038 155.74585,78.461575 126.19652,68.145113 Z"
         id="path1480"
         inkscape:connector-curvature="0" />
      <path
         style="fill:url(#linearGradient1171);fill-opacity:1;stroke:none;stroke-width:0.26458332px;stroke-linecap:butt;stroke-linejoin:miter;stroke-opacity:1"
         d="M -1.3481953,31.819096 C 41.16671,43.927768 83.681615,56.036441 126.19652,68.145113 117.72355,94.460005 109.25057,120.7749 100.7776,147.08979 67.302954,146.50948 33.782953,146.65327 0.35416458,144.7014 -3.5521776,137.85522 -0.68104303,126.23627 -1.6867253,117.53688 c -0.090434,-28.572916 0.1070701,-57.145952 0.33853,-85.717784 z"
         id="path1470"
         inkscape:connector-curvature="0" />
      <path
         style="fill:url(#linearGradient1174);fill-opacity:1;stroke:none;stroke-width:0.26458332px;stroke-linecap:butt;stroke-linejoin:miter;stroke-opacity:1"
         d="M -1.3481953,31.819096 C -0.90512599,20.480006 -1.0876235,9.1236736 -1.0111465,-2.222837 71.903749,-1.8857882 144.81864,-1.5487393 217.73354,-1.2116905 217.08536,32.071018 217.05371,65.388557 215.28961,98.634544 208.44501,99.500839 197.89074,93.658109 189.68381,91.973928 125.97149,72.033716 62.314619,51.91665 -1.3481953,31.819096 Z"
         id="path1452"
         inkscape:connector-curvature="0" />
    </g>
    <text
       xml:space="preserve"
       style="font-style:normal;font-weight:normal;font-size:10.58333302px;line-height:1.25;font-family:sans-serif;letter-spacing:0px;word-spacing:0px;fill:#000000;fill-opacity:1;stroke:none;stroke-width:0.26458332"
       x="138.52707"
       y="80.017082"
       id="text911"><tspan
         sodipodi:role="line"
         x="138.52707"
         y="89.380852"
         style="stroke-width:0.26458332"
         id="tspan919" /></text>
    <text
       xml:space="preserve"
       style="font-style:normal;font-weight:normal;font-size:10.58333302px;line-height:1.25;font-family:sans-serif;letter-spacing:0px;word-spacing:0px;fill:#000000;fill-opacity:1;stroke:none;stroke-width:0.26458332"
       x="245.37155"
       y="83.050514"
       id="text939"><tspan
         sodipodi:role="line"
         id="tspan937"
         x="245.37155"
         y="92.414284"
         style="stroke-width:0.26458332"></tspan></text>
  </g>
  <g
     inkscape:groupmode="layer"
     id="layer5"
     inkscape:label="description"
     style="display:none">
    <flowRoot
       xml:space="preserve"
       id="flowRoot923"
       style="font-style:normal;font-weight:normal;font-size:40px;line-height:1.25;font-family:sans-serif;letter-spacing:0px;word-spacing:0px;fill:#000000;fill-opacity:1;stroke:none"
       transform="matrix(0.26458333,0,0,0.26458333,-19.392883,-12.181695)"><flowRegion
         id="flowRegion925"><rect
           id="rect927"
           width="402.8989"
           height="261.48209"
           x="430.57324"
           y="260.38855" /></flowRegion><flowPara
         style="font-style:normal;font-variant:normal;font-weight:500;font-stretch:normal;font-size:26.66666794px;font-family:Ubuntu;-inkscape-font-specification:'Ubuntu Medium';text-align:end;letter-spacing:0px;text-anchor:end;fill:#ffffff"
         id="flowPara935">Clément CANUTO</flowPara><flowPara
         style="font-style:normal;font-variant:normal;font-weight:normal;font-stretch:normal;font-size:26.66666794px;font-family:Ubuntu;-inkscape-font-specification:Ubuntu;text-align:end;letter-spacing:0px;text-anchor:end;fill:#ffffff"
         id="flowPara943">Graphiste indépendant à Rennes</flowPara><flowPara
         style="font-style:normal;font-variant:normal;font-weight:300;font-stretch:normal;font-size:21.33333397px;font-family:Ubuntu;-inkscape-font-specification:'Ubuntu Light';text-align:end;letter-spacing:0px;text-anchor:end;fill:#ffffff"
         id="flowPara1167">https://clement-canuto.github.io/contact</flowPara><flowPara
         style="font-style:normal;font-variant:normal;font-weight:300;font-stretch:normal;font-size:21.33333397px;font-family:Ubuntu;-inkscape-font-specification:'Ubuntu Light';text-align:end;letter-spacing:0px;text-anchor:end;fill:#ffffff"
         id="flowPara1165">SIRET : 881 411 623 00013</flowPara></flowRoot>    <path
       style="fill:#ffffff;stroke:#ffffff;stroke-width:1.0126121;stroke-linecap:butt;stroke-linejoin:miter;stroke-miterlimit:4;stroke-dasharray:none;stroke-opacity:1"
       d="M 205.22998,60.139669 V 127.53249"
       id="path907"
       inkscape:connector-curvature="0" />
  </g>
  <g
     inkscape:groupmode="layer"
     id="layer2"
     inkscape:label="logo">
    <g
       id="g1738"
       transform="matrix(1.67173,0,0,1.7187018,17.302288,-71.399965)"
       inkscape:export-filename="/home/canuto/Documents/Repos/clement-canuto.github.io/assets/img/portfolio/png/g1738.png"
       inkscape:export-xdpi="96"
       inkscape:export-ydpi="96">
      <g
         style="display:inline;opacity:0.5;fill:#000000;stroke:#4e42ac;stroke-width:10.42504025;stroke-linecap:round;stroke-linejoin:round;stroke-miterlimit:4;stroke-dasharray:none;stroke-opacity:1;paint-order:stroke markers fill;filter:url(#filter1113)"
         transform="matrix(0.34551459,0,0,0.34551459,20.268075,23.79417)"
         inkscape:label="Vectors"
         id="g1684">
        <path
           sodipodi:nodetypes="ccccccccccc"
           inkscape:connector-curvature="0"
           id="path1642"
           d="m 67.155861,131.12333 c -8.302676,21.65931 16.973795,30.70189 3.57396,66.29006 15.728953,0.89501 32.831559,-2.94659 44.089459,-8.94362 0.30773,-0.4694 0.87872,-0.46715 0.56596,-2.04967 -1.1842,-49.98457 -37.862148,-34.33186 -45.431023,-54.17302 -2.337511,-0.45343 -1.35193,0.83207 -2.798356,-1.12375 z m 3.506478,7.32535 c 1.235928,-9e-5 2.237867,1.00185 2.237778,2.23778 8.9e-5,1.23593 -1.00185,2.23787 -2.237778,2.23778 -1.235927,9e-5 -2.237865,-1.00185 -2.237776,-2.23778 -8.9e-5,-1.23593 1.001849,-2.23787 2.237776,-2.23778 z"
           style="fill:#000000;stroke:#4e42ac;stroke-width:10.42504025;stroke-linecap:round;stroke-linejoin:round;stroke-miterlimit:4;stroke-dasharray:none;stroke-opacity:1;paint-order:stroke markers fill" />
        <path
           sodipodi:nodetypes="ccccccccccc"
           inkscape:connector-curvature="0"
           id="path1644"
           d="m 63.470933,127.69196 c -13.499484,4.37111 0.06701,45.46681 -25.376823,61.53881 10.339204,4.90544 21.587069,7.10472 29.332035,7.80948 3.271456,-11.84405 5.300453,-18.25723 0.932582,-33.94448 -2.429689,-7.22156 -9.195851,-24.16284 -4.707354,-34.28584 -0.06477,0.13095 -0.345546,-0.89782 -0.18044,-1.11797 z m -2.68026,23.78783 c 1.163199,-6e-5 2.106173,0.94291 2.106109,2.10611 -2.4e-4,1.16298 -0.943125,2.10562 -2.106109,2.10556 -1.162985,6e-5 -2.105871,-0.94258 -2.106111,-2.10556 -6.4e-5,-1.1632 0.942912,-2.10617 2.106111,-2.10611 z"
           style="fill:#000000;stroke:#4e42ac;stroke-width:10.42504025;stroke-linecap:round;stroke-linejoin:round;stroke-miterlimit:4;stroke-dasharray:none;stroke-opacity:1;paint-order:stroke markers fill" />
        <path
           sodipodi:nodetypes="cccccccccc"
           inkscape:connector-curvature="0"
           id="path1646"
           d="m 60.846782,119.71945 c -10.573288,5.80105 -20.373737,38.83565 -48.025358,45.83598 0.07462,0.93377 9.189901,15.85743 23.231865,22.34778 23.194004,-13.51002 11.862883,-59.12663 25.604834,-62.57968 -0.950904,-1.65904 -1.389437,-3.39351 -0.811341,-5.60408 z m -9.467499,16.62312 c 0.690691,8e-5 1.2505,0.56014 1.250281,1.25083 -8.5e-5,0.69048 -0.559805,1.2502 -1.250281,1.25028 -0.690475,-9e-5 -1.250193,-0.55981 -1.250278,-1.25028 -2.19e-4,-0.69069 0.559589,-1.25074 1.250278,-1.25083 z"
           style="fill:#000000;stroke:#4e42ac;stroke-width:10.42504025;stroke-linecap:round;stroke-linejoin:round;stroke-miterlimit:4;stroke-dasharray:none;stroke-opacity:1;paint-order:stroke markers fill" />
        <path
           sodipodi:nodetypes="ccccccccccccccccccccc"
           inkscape:connector-curvature="0"
           id="path1648"
           d="m 57.687659,117.87608 c -19.205234,-0.0991 -32.52314,21.22552 -53.5126354,20.54224 1.3644715,8.77885 1.7605525,12.78758 7.2428994,24.55081 24.627498,-6.79967 36.056069,-42.47098 49.164185,-44.92216 -0.98553,-0.11087 -1.949931,-0.16608 -2.894449,-0.17095 z m -13.15282,6.22539 c 0.617965,1.1e-4 1.118811,0.5012 1.118612,1.11917 -1.1e-4,0.61775 -0.500866,1.1185 -1.118612,1.11861 -0.617746,-1.1e-4 -1.118501,-0.50086 -1.118611,-1.11861 -1.99e-4,-0.61796 0.500646,-1.11906 1.118611,-1.11917 z m -9.410834,11.31999 c 1.453678,1.5e-4 2.632078,1.17855 2.632223,2.63223 1.53e-4,1.45389 -1.178334,2.63262 -2.632223,2.63277 -1.454105,1.6e-4 -2.632929,-1.17867 -2.632776,-2.63277 1.45e-4,-1.45389 1.178882,-2.63239 2.632776,-2.63223 z m -15.400553,7.37111 c 2.108217,-6e-5 3.81728,1.709 3.817222,3.81722 -2.46e-4,2.108 -1.70922,3.81673 -3.817222,3.81667 -2.107786,-2.5e-4 -3.816422,-1.70888 -3.816668,-3.81667 -5.8e-5,-2.108 1.708667,-3.81697 3.816668,-3.81722 z"
           style="fill:#000000;stroke:#4e42ac;stroke-width:10.42504025;stroke-linecap:round;stroke-linejoin:round;stroke-miterlimit:4;stroke-dasharray:none;stroke-opacity:1;paint-order:stroke markers fill" />
        <path
           sodipodi:nodetypes="cccccccccccccccccccc"
           inkscape:connector-curvature="0"
           id="path1650"
           d="m 10.687444,102.29212 c -5.0225912,7.94117 -8.3874028,20.77425 -6.851326,33.21126 14.380133,1.05073 39.482975,-22.87919 56.59164,-19.36607 l -0.06583,-1.67405 c -12.50956,-9.12878 -40.214313,4.26938 -49.674484,-12.17114 z m 4.853108,11.46689 c 1.439419,-1e-4 2.606324,1.16681 2.606222,2.60623 -2.02e-4,1.4392 -1.167019,2.60577 -2.606222,2.60566 -1.438988,-2e-4 -2.605467,-1.16668 -2.605669,-2.60566 -1.04e-4,-1.43921 1.166466,-2.60602 2.605669,-2.60623 z m 19.638222,1.39633 c 1.079456,0 1.954528,0.87507 1.954528,1.95453 0,1.07945 -0.875072,1.95453 -1.954528,1.95453 -1.079456,0 -1.954528,-0.87508 -1.954528,-1.95453 0,-1.07946 0.875072,-1.95453 1.954528,-1.95453 z m -13.495261,7.81811 c 0.771008,-1.3e-4 1.396153,0.62477 1.396329,1.39578 1.33e-4,0.77123 -0.625104,1.39646 -1.396329,1.39633 -0.771227,1.3e-4 -1.396462,-0.6251 -1.396329,-1.39633 1.74e-4,-0.77101 0.625319,-1.39591 1.396329,-1.39578 z"
           style="fill:#000000;stroke:#4e42ac;stroke-width:10.42504025;stroke-linecap:round;stroke-linejoin:round;stroke-miterlimit:4;stroke-dasharray:none;stroke-opacity:1;paint-order:stroke markers fill" />
        <path
           sodipodi:nodetypes="ccccccccccccccccccc"
           inkscape:connector-curvature="0"
           id="path1652"
           d="M 30.10742,81.681852 C 22.151,86.465926 16.98319,91.788487 12.392814,98.810735 20.225211,115.13282 50.605904,102.45452 60.454867,111.96935 54.550498,101.54421 33.522099,96.95675 30.10742,81.681852 Z m -2.513854,11.042611 c 1.105107,3.4e-5 2.000965,0.89589 2.001001,2.000997 2.7e-4,1.105323 -0.895678,2.001518 -2.001001,2.001552 -1.105322,-3.6e-5 -2.001268,-0.89623 -2.000998,-2.001552 3.6e-5,-1.105106 0.895892,-2.000961 2.000998,-2.000997 z m 7.957524,6.142957 c 1.079457,-10e-7 1.95453,0.875073 1.954528,1.95453 2e-6,1.07946 -0.875071,1.95453 -1.954528,1.95453 -1.079457,0 -1.954529,-0.87507 -1.954527,-1.95453 -2e-6,-1.079457 0.87507,-1.95453 1.954527,-1.95453 z m -13.215884,2.41979 c 0.514079,1.2e-4 0.930708,0.41699 0.930518,0.93107 -1.14e-4,0.51386 -0.416654,0.9304 -0.930518,0.93052 -0.514079,1.9e-4 -0.930956,-0.41644 -0.93107,-0.93052 -1.9e-4,-0.51429 0.416776,-0.93126 0.93107,-0.93107 z"
           style="fill:#000000;stroke:#4e42ac;stroke-width:10.42504025;stroke-linecap:round;stroke-linejoin:round;stroke-miterlimit:4;stroke-dasharray:none;stroke-opacity:1;paint-order:stroke markers fill" />
        <path
           sodipodi:nodetypes="ccccccccc"
           inkscape:connector-curvature="0"
           id="path1654"
           d="M 52.378887,75.048941 C 45.411541,75.564145 39.617746,76.425826 32.444429,80.516214 36.881455,94.910176 59.709362,100.0595 62.379521,113.47964 66.561881,103.39519 39.409174,89.172309 52.378887,75.048941 Z m -8.730308,6.041846 c 0.925126,8.5e-5 1.675067,0.750025 1.675154,1.675151 -8.5e-5,0.925127 -0.750027,1.675069 -1.675154,1.675154 -0.925126,-8.7e-5 -1.675066,-0.750028 -1.675151,-1.675154 8.7e-5,-0.925124 0.750027,-1.675064 1.675151,-1.675151 z"
           style="fill:#000000;stroke:#4e42ac;stroke-width:10.42504025;stroke-linecap:round;stroke-linejoin:round;stroke-miterlimit:4;stroke-dasharray:none;stroke-opacity:1;paint-order:stroke markers fill" />
        <path
           sodipodi:nodetypes="ccccccccc"
           inkscape:connector-curvature="0"
           id="path1656"
           d="m 54.662581,75.107718 c -9.21761,14.512909 9.599976,22.508502 9.550313,38.694452 7.508635,-7.20423 -7.367915,-25.504882 5.482698,-36.080709 -4.355489,-1.275139 -6.919106,-2.159285 -15.033011,-2.613743 z m 3.877589,12.032534 c 0.976857,-1.46e-4 1.768792,0.79179 1.768645,1.768647 -1.59e-4,0.976641 -0.792004,1.768239 -1.768645,1.768093 -0.976424,-1.6e-4 -1.767932,-0.791669 -1.768091,-1.768093 -1.47e-4,-0.976641 0.79145,-1.768487 1.768091,-1.768647 z"
           style="fill:#000000;stroke:#4e42ac;stroke-width:10.42504025;stroke-linecap:round;stroke-linejoin:round;stroke-miterlimit:4;stroke-dasharray:none;stroke-opacity:1;paint-order:stroke markers fill" />
        <path
           sodipodi:nodetypes="ccccccccc"
           inkscape:connector-curvature="0"
           id="path1658"
           d="m 71.740698,78.512476 c -12.154026,11.978571 2.342628,21.674474 -6.1702,36.539414 13.19936,-6.1807 0.900455,-23.490027 18.747855,-30.040045 -4.137924,-2.969961 -7.664789,-4.877293 -12.577655,-6.499369 z m 1.086394,5.09104 c 1.464857,2.38e-4 2.652211,1.180161 2.652138,2.63554 7.6e-5,1.455381 -1.187279,2.635306 -2.652138,2.635544 -1.465076,6.7e-5 -2.65277,-1.179948 -2.652694,-2.635544 -7.3e-5,-1.455595 1.18762,-2.635607 2.652694,-2.63554 z"
           style="fill:#000000;stroke:#4e42ac;stroke-width:10.42504025;stroke-linecap:round;stroke-linejoin:round;stroke-miterlimit:4;stroke-dasharray:none;stroke-opacity:1;paint-order:stroke markers fill" />
        <path
           sodipodi:nodetypes="ccccc"
           inkscape:connector-curvature="0"
           id="path1660"
           d="m 85.574811,85.945671 c 4.156558,2.966628 6.370254,6.271644 7.588488,7.383944 C 76.848441,97.12642 80.905824,113.23666 69.122502,114.45785 l -2.43e-4,1e-4 c 11.669154,-12.41791 0.01077,-19.431892 16.452552,-28.512279 z"
           style="fill:#000000;stroke:#4e42ac;stroke-width:10.42504025;stroke-linecap:round;stroke-linejoin:round;stroke-miterlimit:4;stroke-dasharray:none;stroke-opacity:1;paint-order:stroke markers fill" />
        <path
           sodipodi:nodetypes="cccccc"
           inkscape:connector-curvature="0"
           id="path1662"
           d="m 94.223222,94.683619 c 1.505252,1.571659 2.229859,3.343831 2.988743,5.323961 -2.912616,11.06902 -12.389172,10.18475 -18.009566,19.52199 -2.375662,-2.90796 -4.597644,-1.14188 -7.421181,-2.22297 l -0.804503,-2.10469 C 81.17448,113.73967 80.043167,96.188156 94.223222,94.683619 Z"
           style="fill:#000000;stroke:#4e42ac;stroke-width:10.42504025;stroke-linecap:round;stroke-linejoin:round;stroke-miterlimit:4;stroke-dasharray:none;stroke-opacity:1;paint-order:stroke markers fill" />
        <path
           sodipodi:nodetypes="cccsscc"
           inkscape:connector-curvature="0"
           id="path1664"
           d="m 72.645006,118.79561 c 4.274876,0.1704 4.267526,0.76568 5.980695,2.37747 -1.466653,2.99735 -1.364292,6.09965 -1.387709,9.33804 -3.78133,-0.0393 -5.563061,0.18833 -7.778003,-0.55535 -7.174381,-2.40886 -7.960189,-9.07331 -5.765645,-12.07411 2.580577,-3.52866 8.988349,-2.4456 9.648867,9.89334 1.593583,-3.19601 -0.307406,-6.3152 -0.698205,-8.97939 z"
           style="fill:#000000;stroke:#4e42ac;stroke-width:10.42504025;stroke-linecap:round;stroke-linejoin:round;stroke-miterlimit:4;stroke-dasharray:none;stroke-opacity:1;paint-order:stroke markers fill" />
        <path
           inkscape:connector-curvature="0"
           id="path1666"
           d="m 102.11071,97.37815 c -1.61896,17.24236 -23.610049,13.0553 -18.935629,33.49031 28.912579,-3.28015 19.659889,1.37562 59.697459,13.05711 -0.21226,-1.74065 -1.75421,-3.3452 -6.46382,-5.80605 -16.69172,-9.05289 -25.91561,-38.0244 -34.29801,-40.74137 z m -7.8336,18.19764 c 0.07577,-0.002 0.148119,0.002 0.216864,0.0116 -3.047387,2.50961 -4.569705,5.34238 -3.862034,9.1215 2.705055,1.00892 5.247993,0.33031 7.591292,2.00266 0.07145,0.0261 0.120116,0.0557 0.13333,0.0913 -0.04412,-0.0333 -0.08903,-0.0597 -0.13333,-0.0913 -1.222588,-0.44641 -10.468144,0.44665 -10.56983,0.83591 -1.285842,-6.58973 4.274982,-11.92375 6.623708,-11.97169 z"
           style="fill:#000000;stroke:#4e42ac;stroke-width:10.42504025;stroke-linecap:round;stroke-linejoin:round;stroke-miterlimit:4;stroke-dasharray:none;stroke-opacity:1;paint-order:stroke markers fill" />
        <path
           sodipodi:nodetypes="cccccccccsc"
           inkscape:connector-curvature="0"
           id="path1668"
           d="m 104.03515,152.54544 -4.494618,-3.60433 0.769728,-1.3579 c 0.39436,1.40604 1.50621,-0.48195 1.76479,-1.0393 l 1.58222,-3.30409 c 2.16206,-3.29519 -1.79421,-7.90593 -3.58421,-2.79236 1.71159,2.31357 1.36758,4.0999 0.4654,6.64327 l -0.997928,1.85038 c -4.250888,-1.96849 -8.900881,-4.62589 -12.605799,-6.7485 -1.29461,-12.92603 26.723467,-17.71867 23.231097,2.534 -0.45827,2.65753 -3.41232,5.12759 -6.13068,7.81883 z"
           style="fill:#000000;stroke:#4e42ac;stroke-width:10.42504025;stroke-linecap:round;stroke-linejoin:round;stroke-miterlimit:4;stroke-dasharray:none;stroke-opacity:1;paint-order:stroke markers fill" />
        <path
           sodipodi:nodetypes="ccccccc"
           inkscape:connector-curvature="0"
           id="path1670"
           d="m 104.73221,152.95414 5.03065,4.98235 c 11.18806,-4.55609 22.67108,-0.25812 33.51156,2.79625 30.09356,7.17613 45.50476,-1.13125 64.10989,-20.72577 -4.30626,0.24529 -0.9851,3.38946 -23.5217,15.1229 -25.17038,10.55023 -43.48932,-9.94444 -69.01338,-8.09733 -4.42846,0.24058 -6.33529,2.53594 -10.11702,5.9216 z"
           style="fill:#000000;stroke:#4e42ac;stroke-width:10.42504025;stroke-linecap:round;stroke-linejoin:round;stroke-miterlimit:4;stroke-dasharray:none;stroke-opacity:1;paint-order:stroke markers fill" />
        <path
           sodipodi:nodetypes="cccc"
           inkscape:connector-curvature="0"
           id="path1672"
           d="m 110.96805,159.67963 c 2.62057,2.72431 3.25788,5.15614 4.11679,8.65008 8.94762,0.37497 18.13782,-2.38732 24.53987,-5.97125 -9.92731,-3.02045 -19.92802,-4.60789 -28.65666,-2.67883 z"
           style="fill:#000000;stroke:#4e42ac;stroke-width:10.42504025;stroke-linecap:round;stroke-linejoin:round;stroke-miterlimit:4;stroke-dasharray:none;stroke-opacity:1;paint-order:stroke markers fill" />
        <path
           sodipodi:nodetypes="cccc"
           inkscape:connector-curvature="0"
           id="path1674"
           d="m 146.67838,151.43043 7.37409,1.90273 c 12.10403,-10.31462 24.55273,-20.38324 39.40959,-24.38951 -20.26704,3.39609 -30.79912,12.05646 -46.78368,22.48678 z"
           style="fill:#000000;stroke:#4e42ac;stroke-width:10.42504025;stroke-linecap:round;stroke-linejoin:round;stroke-miterlimit:4;stroke-dasharray:none;stroke-opacity:1;paint-order:stroke markers fill" />
        <path
           sodipodi:nodetypes="ccccccc"
           inkscape:connector-curvature="0"
           id="path1676"
           d="m 136.27729,167.53785 c 0.77069,-0.24709 6.12054,-4.17908 6.12054,-4.17908 6.40451,1.67112 12.76167,2.87293 18.9412,1.82294 11.57173,5.83937 21.05087,5.58622 33.13387,4.83977 -5.87777,2.04545 -12.20252,2.94602 -18.66107,2.93178 -12.8678,-1.4119 -26.36285,-4.59121 -37.88058,-5.58436 z"
           style="fill:#000000;stroke:#4e42ac;stroke-width:10.42504025;stroke-linecap:round;stroke-linejoin:round;stroke-miterlimit:4;stroke-dasharray:none;stroke-opacity:1;paint-order:stroke markers fill" />
        <path
           sodipodi:nodetypes="ccccccc"
           inkscape:connector-curvature="0"
           id="path1678"
           d="m 115.72739,170.56522 0.87201,6.64703 c 11.6071,-4.32549 21.87629,-1.18666 31.8956,5.14133 15.11272,8.68938 27.50748,9.26279 41.78963,2.83872 0,0 -9.02805,0.79111 -9.63301,1.02379 -21.37149,3.94536 -37.10268,-17.80984 -53.17725,-16.98435 -2.82484,0.42579 -8.89831,1.24251 -11.74698,1.33348 z"
           style="fill:#000000;stroke:#4e42ac;stroke-width:10.42504025;stroke-linecap:round;stroke-linejoin:round;stroke-miterlimit:4;stroke-dasharray:none;stroke-opacity:1;paint-order:stroke markers fill" />
        <path
           sodipodi:nodetypes="ccccc"
           inkscape:connector-curvature="0"
           id="path1680"
           d="m 114.0581,145.49684 c 10.78599,-1.40802 15.13067,0.60489 25.2227,3.81599 0,0 -2.87727,-4.17504 -2.97034,-4.45427 -5.92372,-0.7059 -17.49509,-5.23531 -22.19258,-7.9178 0.93214,5.90781 0.40701,3.42071 -0.0597,8.55608 z"
           style="fill:#000000;stroke:#4e42ac;stroke-width:10.42504025;stroke-linecap:round;stroke-linejoin:round;stroke-miterlimit:4;stroke-dasharray:none;stroke-opacity:1;paint-order:stroke markers fill" />
        <path
           sodipodi:nodetypes="ccccc"
           inkscape:connector-curvature="0"
           id="path1682"
           d="m 116.85993,178.55623 0.22303,1.70326 c 18.47781,-0.10955 13.68503,31.4643 33.08072,24.39651 -13.48145,-2.34785 -10.96406,-19.89011 -15.36717,-25.99587 -6.79317,-0.96774 -11.64335,-1.69328 -17.93658,-0.10385 z"
           style="fill:#000000;stroke:#4e42ac;stroke-width:10.42504025;stroke-linecap:round;stroke-linejoin:round;stroke-miterlimit:4;stroke-dasharray:none;stroke-opacity:1;paint-order:stroke markers fill" />
      </g>
      <g
         id="layer4"
         inkscape:label="Vectors"
         transform="matrix(0.34551459,0,0,0.34551459,20.268075,23.79417)"
         style="display:inline;stroke:none;stroke-width:0;stroke-miterlimit:4;stroke-dasharray:none;stroke-opacity:1">
        <path
           style="fill:#ffffff;stroke:none;stroke-width:0;stroke-linecap:butt;stroke-linejoin:miter;stroke-miterlimit:4;stroke-dasharray:none;stroke-opacity:1"
           d="m 67.155861,131.12333 c -8.302676,21.65931 16.973795,30.70189 3.57396,66.29006 15.728953,0.89501 32.831559,-2.94659 44.089459,-8.94362 0.30773,-0.4694 0.87872,-0.46715 0.56596,-2.04967 -1.1842,-49.98457 -37.862148,-34.33186 -45.431023,-54.17302 -2.337511,-0.45343 -1.35193,0.83207 -2.798356,-1.12375 z m 3.506478,7.32535 c 1.235928,-9e-5 2.237867,1.00185 2.237778,2.23778 8.9e-5,1.23593 -1.00185,2.23787 -2.237778,2.23778 -1.235927,9e-5 -2.237865,-1.00185 -2.237776,-2.23778 -8.9e-5,-1.23593 1.001849,-2.23787 2.237776,-2.23778 z"
           id="path953"
           inkscape:connector-curvature="0"
           sodipodi:nodetypes="ccccccccccc" />
        <path
           style="fill:#ffffff;stroke:none;stroke-width:0;stroke-linecap:butt;stroke-linejoin:miter;stroke-miterlimit:4;stroke-dasharray:none;stroke-opacity:1"
           d="m 63.470933,127.69196 c -13.499484,4.37111 0.06701,45.46681 -25.376823,61.53881 10.339204,4.90544 21.587069,7.10472 29.332035,7.80948 3.271456,-11.84405 5.300453,-18.25723 0.932582,-33.94448 -2.429689,-7.22156 -9.195851,-24.16284 -4.707354,-34.28584 -0.06477,0.13095 -0.345546,-0.89782 -0.18044,-1.11797 z m -2.68026,23.78783 c 1.163199,-6e-5 2.106173,0.94291 2.106109,2.10611 -2.4e-4,1.16298 -0.943125,2.10562 -2.106109,2.10556 -1.162985,6e-5 -2.105871,-0.94258 -2.106111,-2.10556 -6.4e-5,-1.1632 0.942912,-2.10617 2.106111,-2.10611 z"
           id="path955"
           inkscape:connector-curvature="0"
           sodipodi:nodetypes="ccccccccccc" />
        <path
           style="fill:#ffffff;stroke:none;stroke-width:0;stroke-linecap:butt;stroke-linejoin:miter;stroke-miterlimit:4;stroke-dasharray:none;stroke-opacity:1"
           d="m 60.846782,119.71945 c -10.573288,5.80105 -20.373737,38.83565 -48.025358,45.83598 0.07462,0.93377 9.189901,15.85743 23.231865,22.34778 23.194004,-13.51002 11.862883,-59.12663 25.604834,-62.57968 -0.950904,-1.65904 -1.389437,-3.39351 -0.811341,-5.60408 z m -9.467499,16.62312 c 0.690691,8e-5 1.2505,0.56014 1.250281,1.25083 -8.5e-5,0.69048 -0.559805,1.2502 -1.250281,1.25028 -0.690475,-9e-5 -1.250193,-0.55981 -1.250278,-1.25028 -2.19e-4,-0.69069 0.559589,-1.25074 1.250278,-1.25083 z"
           id="path957"
           inkscape:connector-curvature="0"
           sodipodi:nodetypes="cccccccccc" />
        <path
           style="fill:#ffffff;stroke:none;stroke-width:0;stroke-linecap:butt;stroke-linejoin:miter;stroke-miterlimit:4;stroke-dasharray:none;stroke-opacity:1"
           d="m 57.687659,117.87608 c -19.205234,-0.0991 -32.52314,21.22552 -53.5126354,20.54224 1.3644715,8.77885 1.7605525,12.78758 7.2428994,24.55081 24.627498,-6.79967 36.056069,-42.47098 49.164185,-44.92216 -0.98553,-0.11087 -1.949931,-0.16608 -2.894449,-0.17095 z m -13.15282,6.22539 c 0.617965,1.1e-4 1.118811,0.5012 1.118612,1.11917 -1.1e-4,0.61775 -0.500866,1.1185 -1.118612,1.11861 -0.617746,-1.1e-4 -1.118501,-0.50086 -1.118611,-1.11861 -1.99e-4,-0.61796 0.500646,-1.11906 1.118611,-1.11917 z m -9.410834,11.31999 c 1.453678,1.5e-4 2.632078,1.17855 2.632223,2.63223 1.53e-4,1.45389 -1.178334,2.63262 -2.632223,2.63277 -1.454105,1.6e-4 -2.632929,-1.17867 -2.632776,-2.63277 1.45e-4,-1.45389 1.178882,-2.63239 2.632776,-2.63223 z m -15.400553,7.37111 c 2.108217,-6e-5 3.81728,1.709 3.817222,3.81722 -2.46e-4,2.108 -1.70922,3.81673 -3.817222,3.81667 -2.107786,-2.5e-4 -3.816422,-1.70888 -3.816668,-3.81667 -5.8e-5,-2.108 1.708667,-3.81697 3.816668,-3.81722 z"
           id="path959"
           inkscape:connector-curvature="0"
           sodipodi:nodetypes="ccccccccccccccccccccc" />
        <path
           style="fill:#ffffff;stroke:none;stroke-width:0;stroke-linecap:butt;stroke-linejoin:miter;stroke-miterlimit:4;stroke-dasharray:none;stroke-opacity:1"
           d="m 10.687444,102.29212 c -5.0225912,7.94117 -8.3874028,20.77425 -6.851326,33.21126 14.380133,1.05073 39.482975,-22.87919 56.59164,-19.36607 l -0.06583,-1.67405 c -12.50956,-9.12878 -40.214313,4.26938 -49.674484,-12.17114 z m 4.853108,11.46689 c 1.439419,-1e-4 2.606324,1.16681 2.606222,2.60623 -2.02e-4,1.4392 -1.167019,2.60577 -2.606222,2.60566 -1.438988,-2e-4 -2.605467,-1.16668 -2.605669,-2.60566 -1.04e-4,-1.43921 1.166466,-2.60602 2.605669,-2.60623 z m 19.638222,1.39633 c 1.079456,0 1.954528,0.87507 1.954528,1.95453 0,1.07945 -0.875072,1.95453 -1.954528,1.95453 -1.079456,0 -1.954528,-0.87508 -1.954528,-1.95453 0,-1.07946 0.875072,-1.95453 1.954528,-1.95453 z m -13.495261,7.81811 c 0.771008,-1.3e-4 1.396153,0.62477 1.396329,1.39578 1.33e-4,0.77123 -0.625104,1.39646 -1.396329,1.39633 -0.771227,1.3e-4 -1.396462,-0.6251 -1.396329,-1.39633 1.74e-4,-0.77101 0.625319,-1.39591 1.396329,-1.39578 z"
           id="path961"
           inkscape:connector-curvature="0"
           sodipodi:nodetypes="cccccccccccccccccccc" />
        <path
           style="fill:#ffffff;stroke:none;stroke-width:0;stroke-linecap:butt;stroke-linejoin:miter;stroke-miterlimit:4;stroke-dasharray:none;stroke-opacity:1"
           d="M 30.10742,81.681852 C 22.151,86.465926 16.98319,91.788487 12.392814,98.810735 20.225211,115.13282 50.605904,102.45452 60.454867,111.96935 54.550498,101.54421 33.522099,96.95675 30.10742,81.681852 Z m -2.513854,11.042611 c 1.105107,3.4e-5 2.000965,0.89589 2.001001,2.000997 2.7e-4,1.105323 -0.895678,2.001518 -2.001001,2.001552 -1.105322,-3.6e-5 -2.001268,-0.89623 -2.000998,-2.001552 3.6e-5,-1.105106 0.895892,-2.000961 2.000998,-2.000997 z m 7.957524,6.142957 c 1.079457,-10e-7 1.95453,0.875073 1.954528,1.95453 2e-6,1.07946 -0.875071,1.95453 -1.954528,1.95453 -1.079457,0 -1.954529,-0.87507 -1.954527,-1.95453 -2e-6,-1.079457 0.87507,-1.95453 1.954527,-1.95453 z m -13.215884,2.41979 c 0.514079,1.2e-4 0.930708,0.41699 0.930518,0.93107 -1.14e-4,0.51386 -0.416654,0.9304 -0.930518,0.93052 -0.514079,1.9e-4 -0.930956,-0.41644 -0.93107,-0.93052 -1.9e-4,-0.51429 0.416776,-0.93126 0.93107,-0.93107 z"
           id="path963"
           inkscape:connector-curvature="0"
           sodipodi:nodetypes="ccccccccccccccccccc" />
        <path
           style="fill:#ffffff;stroke:none;stroke-width:0;stroke-linecap:butt;stroke-linejoin:miter;stroke-miterlimit:4;stroke-dasharray:none;stroke-opacity:1"
           d="M 52.378887,75.048941 C 45.411541,75.564145 39.617746,76.425826 32.444429,80.516214 36.881455,94.910176 59.709362,100.0595 62.379521,113.47964 66.561881,103.39519 39.409174,89.172309 52.378887,75.048941 Z m -8.730308,6.041846 c 0.925126,8.5e-5 1.675067,0.750025 1.675154,1.675151 -8.5e-5,0.925127 -0.750027,1.675069 -1.675154,1.675154 -0.925126,-8.7e-5 -1.675066,-0.750028 -1.675151,-1.675154 8.7e-5,-0.925124 0.750027,-1.675064 1.675151,-1.675151 z"
           id="path965"
           inkscape:connector-curvature="0"
           sodipodi:nodetypes="ccccccccc" />
        <path
           style="fill:#ffffff;stroke:none;stroke-width:0;stroke-linecap:butt;stroke-linejoin:miter;stroke-miterlimit:4;stroke-dasharray:none;stroke-opacity:1"
           d="m 54.662581,75.107718 c -9.21761,14.512909 9.599976,22.508502 9.550313,38.694452 7.508635,-7.20423 -7.367915,-25.504882 5.482698,-36.080709 -4.355489,-1.275139 -6.919106,-2.159285 -15.033011,-2.613743 z m 3.877589,12.032534 c 0.976857,-1.46e-4 1.768792,0.79179 1.768645,1.768647 -1.59e-4,0.976641 -0.792004,1.768239 -1.768645,1.768093 -0.976424,-1.6e-4 -1.767932,-0.791669 -1.768091,-1.768093 -1.47e-4,-0.976641 0.79145,-1.768487 1.768091,-1.768647 z"
           id="path967"
           inkscape:connector-curvature="0"
           sodipodi:nodetypes="ccccccccc" />
        <path
           style="fill:#ffffff;stroke:none;stroke-width:0;stroke-linecap:butt;stroke-linejoin:miter;stroke-miterlimit:4;stroke-dasharray:none;stroke-opacity:1"
           d="m 71.740698,78.512476 c -12.154026,11.978571 2.342628,21.674474 -6.1702,36.539414 13.19936,-6.1807 0.900455,-23.490027 18.747855,-30.040045 -4.137924,-2.969961 -7.664789,-4.877293 -12.577655,-6.499369 z m 1.086394,5.09104 c 1.464857,2.38e-4 2.652211,1.180161 2.652138,2.63554 7.6e-5,1.455381 -1.187279,2.635306 -2.652138,2.635544 -1.465076,6.7e-5 -2.65277,-1.179948 -2.652694,-2.635544 -7.3e-5,-1.455595 1.18762,-2.635607 2.652694,-2.63554 z"
           id="path975"
           inkscape:connector-curvature="0"
           sodipodi:nodetypes="ccccccccc" />
        <path
           style="fill:#ffffff;stroke:none;stroke-width:0;stroke-linecap:butt;stroke-linejoin:miter;stroke-miterlimit:4;stroke-dasharray:none;stroke-opacity:1"
           d="m 85.574811,85.945671 c 4.156558,2.966628 6.370254,6.271644 7.588488,7.383944 C 76.848441,97.12642 80.905824,113.23666 69.122502,114.45785 l -2.43e-4,1e-4 c 11.669154,-12.41791 0.01077,-19.431892 16.452552,-28.512279 z"
           id="path977"
           inkscape:connector-curvature="0"
           sodipodi:nodetypes="ccccc" />
        <path
           style="fill:#ffffff;stroke:none;stroke-width:0;stroke-linecap:butt;stroke-linejoin:miter;stroke-miterlimit:4;stroke-dasharray:none;stroke-opacity:1"
           d="m 94.223222,94.683619 c 1.505252,1.571659 2.229859,3.343831 2.988743,5.323961 -2.912616,11.06902 -12.389172,10.18475 -18.009566,19.52199 -2.375662,-2.90796 -4.597644,-1.14188 -7.421181,-2.22297 l -0.804503,-2.10469 C 81.17448,113.73967 80.043167,96.188156 94.223222,94.683619 Z"
           id="path979"
           inkscape:connector-curvature="0"
           sodipodi:nodetypes="cccccc" />
        <path
           style="fill:#ffffff;stroke:none;stroke-width:0;stroke-linecap:butt;stroke-linejoin:miter;stroke-miterlimit:4;stroke-dasharray:none;stroke-opacity:1"
           d="m 72.645006,118.79561 c 4.274876,0.1704 4.267526,0.76568 5.980695,2.37747 -1.466653,2.99735 -1.364292,6.09965 -1.387709,9.33804 -3.78133,-0.0393 -5.563061,0.18833 -7.778003,-0.55535 -7.174381,-2.40886 -7.960189,-9.07331 -5.765645,-12.07411 2.580577,-3.52866 8.988349,-2.4456 9.648867,9.89334 1.593583,-3.19601 -0.307406,-6.3152 -0.698205,-8.97939 z"
           id="path981"
           inkscape:connector-curvature="0"
           sodipodi:nodetypes="cccsscc" />
        <path
           style="fill:#ffffff;stroke:none;stroke-width:0;stroke-linecap:butt;stroke-linejoin:miter;stroke-miterlimit:4;stroke-dasharray:none;stroke-opacity:1"
           d="m 102.11071,97.37815 c -1.61896,17.24236 -23.610049,13.0553 -18.935629,33.49031 28.912579,-3.28015 19.659889,1.37562 59.697459,13.05711 -0.21226,-1.74065 -1.75421,-3.3452 -6.46382,-5.80605 -16.69172,-9.05289 -25.91561,-38.0244 -34.29801,-40.74137 z m -7.8336,18.19764 c 0.07577,-0.002 0.148119,0.002 0.216864,0.0116 -3.047387,2.50961 -4.569705,5.34238 -3.862034,9.1215 2.705055,1.00892 5.247993,0.33031 7.591292,2.00266 0.07145,0.0261 0.120116,0.0557 0.13333,0.0913 -0.04412,-0.0333 -0.08903,-0.0597 -0.13333,-0.0913 -1.222588,-0.44641 -10.468144,0.44665 -10.56983,0.83591 -1.285842,-6.58973 4.274982,-11.92375 6.623708,-11.97169 z"
           id="path983"
           inkscape:connector-curvature="0" />
        <path
           style="fill:#ffffff;stroke:none;stroke-width:0;stroke-linecap:butt;stroke-linejoin:miter;stroke-miterlimit:4;stroke-dasharray:none;stroke-opacity:1"
           d="m 104.03515,152.54544 -4.494618,-3.60433 0.769728,-1.3579 c 0.39436,1.40604 1.50621,-0.48195 1.76479,-1.0393 l 1.58222,-3.30409 c 2.16206,-3.29519 -1.79421,-7.90593 -3.58421,-2.79236 1.71159,2.31357 1.36758,4.0999 0.4654,6.64327 l -0.997928,1.85038 c -4.250888,-1.96849 -8.900881,-4.62589 -12.605799,-6.7485 -1.29461,-12.92603 26.723467,-17.71867 23.231097,2.534 -0.45827,2.65753 -3.41232,5.12759 -6.13068,7.81883 z"
           id="path985"
           inkscape:connector-curvature="0"
           sodipodi:nodetypes="cccccccccsc" />
        <path
           style="fill:#ffffff;stroke:none;stroke-width:0;stroke-linecap:butt;stroke-linejoin:miter;stroke-miterlimit:4;stroke-dasharray:none;stroke-opacity:1"
           d="m 104.73221,152.95414 5.03065,4.98235 c 11.18806,-4.55609 22.67108,-0.25812 33.51156,2.79625 30.09356,7.17613 45.50476,-1.13125 64.10989,-20.72577 -4.30626,0.24529 -0.9851,3.38946 -23.5217,15.1229 -25.17038,10.55023 -43.48932,-9.94444 -69.01338,-8.09733 -4.42846,0.24058 -6.33529,2.53594 -10.11702,5.9216 z"
           id="path987"
           inkscape:connector-curvature="0"
           sodipodi:nodetypes="ccccccc" />
        <path
           style="fill:#ffffff;stroke:none;stroke-width:0;stroke-linecap:butt;stroke-linejoin:miter;stroke-miterlimit:4;stroke-dasharray:none;stroke-opacity:1"
           d="m 110.96805,159.67963 c 2.62057,2.72431 3.25788,5.15614 4.11679,8.65008 8.94762,0.37497 18.13782,-2.38732 24.53987,-5.97125 -9.92731,-3.02045 -19.92802,-4.60789 -28.65666,-2.67883 z"
           id="path991"
           inkscape:connector-curvature="0"
           sodipodi:nodetypes="cccc" />
        <path
           style="fill:#ffffff;stroke:none;stroke-width:0;stroke-linecap:butt;stroke-linejoin:miter;stroke-miterlimit:4;stroke-dasharray:none;stroke-opacity:1"
           d="m 146.67838,151.43043 7.37409,1.90273 c 12.10403,-10.31462 24.55273,-20.38324 39.40959,-24.38951 -20.26704,3.39609 -30.79912,12.05646 -46.78368,22.48678 z"
           id="path993"
           inkscape:connector-curvature="0"
           sodipodi:nodetypes="cccc" />
        <path
           style="fill:#ffffff;stroke:none;stroke-width:0;stroke-linecap:butt;stroke-linejoin:miter;stroke-miterlimit:4;stroke-dasharray:none;stroke-opacity:1"
           d="m 136.27729,167.53785 c 0.77069,-0.24709 6.12054,-4.17908 6.12054,-4.17908 6.40451,1.67112 12.76167,2.87293 18.9412,1.82294 11.57173,5.83937 21.05087,5.58622 33.13387,4.83977 -5.87777,2.04545 -12.20252,2.94602 -18.66107,2.93178 -12.8678,-1.4119 -26.36285,-4.59121 -37.88058,-5.58436 z"
           id="path995"
           inkscape:connector-curvature="0"
           sodipodi:nodetypes="ccccccc" />
        <path
           style="fill:#ffffff;stroke:none;stroke-width:0;stroke-linecap:butt;stroke-linejoin:miter;stroke-miterlimit:4;stroke-dasharray:none;stroke-opacity:1"
           d="m 115.72739,170.56522 0.87201,6.64703 c 11.6071,-4.32549 21.87629,-1.18666 31.8956,5.14133 15.11272,8.68938 27.50748,9.26279 41.78963,2.83872 0,0 -9.02805,0.79111 -9.63301,1.02379 -21.37149,3.94536 -37.10268,-17.80984 -53.17725,-16.98435 -2.82484,0.42579 -8.89831,1.24251 -11.74698,1.33348 z"
           id="path997"
           inkscape:connector-curvature="0"
           sodipodi:nodetypes="ccccccc" />
        <path
           style="fill:#ffffff;stroke:none;stroke-width:0;stroke-linecap:butt;stroke-linejoin:miter;stroke-miterlimit:4;stroke-dasharray:none;stroke-opacity:1"
           d="m 114.0581,145.49684 c 10.78599,-1.40802 15.13067,0.60489 25.2227,3.81599 0,0 -2.87727,-4.17504 -2.97034,-4.45427 -5.92372,-0.7059 -17.49509,-5.23531 -22.19258,-7.9178 0.93214,5.90781 0.40701,3.42071 -0.0597,8.55608 z"
           id="path999"
           inkscape:connector-curvature="0"
           sodipodi:nodetypes="ccccc" />
        <path
           style="fill:#ffffff;stroke:none;stroke-width:0;stroke-linecap:butt;stroke-linejoin:miter;stroke-miterlimit:4;stroke-dasharray:none;stroke-opacity:1"
           d="m 116.85993,178.55623 0.22303,1.70326 c 18.47781,-0.10955 13.68503,31.4643 33.08072,24.39651 -13.48145,-2.34785 -10.96406,-19.89011 -15.36717,-25.99587 -6.79317,-0.96774 -11.64335,-1.69328 -17.93658,-0.10385 z"
           id="path1001"
           inkscape:connector-curvature="0"
           sodipodi:nodetypes="ccccc" />
      </g>
    </g>
  </g>
  <g
     inkscape:groupmode="layer"
     id="layer3"
     inkscape:label="text">
    <text
       xml:space="preserve"
       style="font-style:normal;font-weight:normal;font-size:9.74263859px;line-height:1.25;font-family:sans-serif;letter-spacing:0px;word-spacing:0px;fill:#4e42ac;fill-opacity:1;stroke:none;stroke-width:0.24356596"
       x="54.66642"
       y="109.23901"
       id="text1743"
       inkscape:export-filename="/home/canuto/Documents/Repos/clement-canuto.github.io/assets/img/portfolio/png/g1738.png"
       inkscape:export-xdpi="96"
       inkscape:export-ydpi="96"><tspan
         sodipodi:role="line"
         id="tspan1741"
         x="54.66642"
         y="109.23901"
         style="font-style:normal;font-variant:normal;font-weight:300;font-stretch:normal;font-size:19.75555611px;font-family:Ubuntu;-inkscape-font-specification:'Ubuntu Light';font-variant-ligatures:normal;font-variant-caps:normal;font-variant-numeric:normal;font-feature-settings:normal;text-align:start;writing-mode:lr-tb;text-anchor:start;fill:#ffffff;fill-opacity:1;stroke-width:0.24356596">NautiluShell</tspan><tspan
         sodipodi:role="line"
         x="54.66642"
         y="128.67004"
         style="font-style:normal;font-variant:normal;font-weight:300;font-stretch:normal;font-size:14.11111069px;font-family:Ubuntu;-inkscape-font-specification:'Ubuntu, Light';font-variant-ligatures:normal;font-variant-caps:normal;font-variant-numeric:normal;font-feature-settings:normal;text-align:start;writing-mode:lr-tb;text-anchor:start;fill:#ffffff;fill-opacity:1;stroke-width:0.24356596"
         id="tspan1745">Studio</tspan></text>
    <text
       xml:space="preserve"
       style="font-style:normal;font-weight:normal;font-size:10.58333302px;line-height:1.25;font-family:sans-serif;letter-spacing:0px;word-spacing:0px;fill:#000000;fill-opacity:1;stroke:none;stroke-width:0.26458332"
       x="167.17621"
       y="75.972496"
       id="text892"><tspan
         sodipodi:role="line"
         id="tspan890"
         x="167.17621"
         y="85.336266"
         style="stroke-width:0.26458332"></tspan></text>
  </g>
</svg>
