<?xml version="1.0" encoding="UTF-8" standalone="no"?>
<!-- Created with Inkscape (http://www.inkscape.org/) -->

<svg
   xmlns:dc="http://purl.org/dc/elements/1.1/"
   xmlns:cc="http://creativecommons.org/ns#"
   xmlns:rdf="http://www.w3.org/1999/02/22-rdf-syntax-ns#"
   xmlns:svg="http://www.w3.org/2000/svg"
   xmlns="http://www.w3.org/2000/svg"
   xmlns:sodipodi="http://sodipodi.sourceforge.net/DTD/sodipodi-0.dtd"
   xmlns:inkscape="http://www.inkscape.org/namespaces/inkscape"
   width="210mm"
   height="297mm"
   viewBox="0 0 210 297"
   version="1.1"
   id="svg8"
   sodipodi:docname="perso3.svg"
   inkscape:version="0.92.4 (5da689c313, 2019-01-14)"
   inkscape:export-filename="/home/canuto/Images/escalade/perso3.png"
   inkscape:export-xdpi="179"
   inkscape:export-ydpi="179">
  <defs
     id="defs2" />
  <sodipodi:namedview
     id="base"
     pagecolor="#ffffff"
     bordercolor="#666666"
     borderopacity="1.0"
     inkscape:pageopacity="0"
     inkscape:pageshadow="2"
     inkscape:zoom="0.52248527"
     inkscape:cx="130.23807"
     inkscape:cy="437.83058"
     inkscape:document-units="mm"
     inkscape:current-layer="layer6"
     showgrid="false"
     inkscape:window-width="1920"
     inkscape:window-height="1016"
     inkscape:window-x="0"
     inkscape:window-y="27"
     inkscape:window-maximized="1"
     showguides="false" />
  <metadata
     id="metadata5">
    <rdf:RDF>
      <cc:Work
         rdf:about="">
        <dc:format>image/svg+xml</dc:format>
        <dc:type
           rdf:resource="http://purl.org/dc/dcmitype/StillImage" />
        <dc:title></dc:title>
      </cc:Work>
    </rdf:RDF>
  </metadata>
  <g
     inkscape:groupmode="layer"
     id="layer6"
     inkscape:label="personnage3"
     style="display:inline">
    <path
       style="display:inline;fill:none;stroke:#808080;stroke-width:1.45030749;stroke-linecap:round;stroke-linejoin:miter;stroke-miterlimit:4;stroke-dasharray:none;stroke-opacity:1"
       d="m 87.839469,243.30496 23.106721,24.53718 -4.33236,-16.93777 20.89102,-33.23904 z"
       id="path1850-3"
       inkscape:connector-curvature="0" />
    <path
       style="fill:#000000;stroke:#000000;stroke-width:0.03841522px;stroke-linecap:butt;stroke-linejoin:miter;stroke-opacity:1"
       d="m 39.505058,94.811746 c 6.525862,-2.393714 11.423351,-1.020318 17.64844,0.933246 l 2.504393,0.192297 1.040541,-1.086688 -0.598583,-1.727123 -1.562063,-1.401855 -0.757171,0.717713 1.035552,1.226644 c -5.735052,-1.406813 -10.82158,-3.479878 -16.55259,-1.497161 z"
       id="path1466"
       inkscape:connector-curvature="0"
       sodipodi:nodetypes="cccccccccc" />
    <path
       style="fill:#000000;stroke:#000000;stroke-width:0.03841522px;stroke-linecap:butt;stroke-linejoin:miter;stroke-opacity:1"
       d="m 46.619646,107.20481 -7.727555,0.70702 C 6.4381645,101.88399 -5.3348352,89.415491 9.2951421,59.722616 l 2.2505459,-6.903025 -0.50167,-1.560811 -2.2197704,-2.661992 -0.8343092,-2.418804 0.067208,-0.06257 3.4958676,3.844914 0.670824,2.392262 C 8.2817172,63.879911 4.9229321,74.510095 4.1827561,86.752244 12.723221,99.150476 31.981051,106.00551 46.619525,107.20481"
       id="path1468"
       inkscape:connector-curvature="0"
       sodipodi:nodetypes="cccccccccccc" />
    <path
       style="fill:#000000;stroke:#000000;stroke-width:0.03841522px;stroke-linecap:butt;stroke-linejoin:miter;stroke-opacity:1"
       d="M 9.3948521,86.845623 C 20.032282,85.573405 29.547444,88.66447 39.241091,92.516891 l 0.98738,0.449143 1.781876,-1.968921 C 33.361165,86.437469 24.454813,85.040141 14.892902,85.859263 Z"
       id="path1470"
       inkscape:connector-curvature="0"
       sodipodi:nodetypes="cccccc" />
    <path
       style="fill:#000000;stroke:#000000;stroke-width:0.03841522px;stroke-linecap:butt;stroke-linejoin:miter;stroke-opacity:1"
       d="M 14.017514,66.812023 9.8422327,82.967571 c 0,0 1.7399303,-9.934904 2.2107793,-11.163525 0.470864,-1.22862 1.784827,-8.695499 1.784827,-8.695499 z"
       id="path1472"
       inkscape:connector-curvature="0" />
    <path
       style="fill:#000000;stroke:#000000;stroke-width:0.03841522px;stroke-linecap:butt;stroke-linejoin:miter;stroke-opacity:1"
       d="m 14.918146,85.920627 3.054265,-1.216075 -2.085269,-4.709704 v -9.692443 l -0.307612,-9.611843 1.585671,-7.452325 c 0,0 -0.15264,-9.791735 -0.142598,-9.881233 1.171768,-7.717945 -9.1882694,-9.506897 -10.4852534,-2.268467 0,0 2.017987,1.706437 2.152489,2.320731 0.1347179,0.614342 -0.6997603,2.768716 -0.6997603,2.768716 L 9.8333951,44.02361 c 0,0 0.7262109,-1.777812 0.068753,-2.293758 1.8710499,-8.087415 5.2434149,1.9969 6.3866169,9.989008 l -2.450784,11.389687 0.179629,3.703476 0.120504,11.817663 z"
       id="path1474"
       inkscape:connector-curvature="0"
       sodipodi:nodetypes="ccccccccccccccccc" />
    <path
       style="fill:#000000;stroke:#000000;stroke-width:0.03841522px;stroke-linecap:butt;stroke-linejoin:miter;stroke-opacity:1"
       d="m 53.514406,67.712717 c -1.378804,6.369885 -2.087819,15.005116 0.87633,18.194238 0.25513,1.498953 1.141642,2.41196 2.016984,3.582353 -1.658575,-0.879436 -2.220203,-2.043679 -3.039604,-3.654733 -4.427445,-5.126556 -1.889758,-10.258211 -1.661201,-16.452314 l 0.55259,-0.595834 z"
       id="path1476"
       inkscape:connector-curvature="0"
       sodipodi:nodetypes="ccccccc" />
    <path
       style="fill:#000000;stroke:#000000;stroke-width:0.03841522px;stroke-linecap:butt;stroke-linejoin:miter;stroke-opacity:1"
       d="m 75.542907,71.990937 2.126519,-0.535442 0.339359,0.371108 0.940105,2.059268 0.0031,2.075335 v 0 l 0.566309,-1.18799 c 0,0 -0.10088,-1.604054 -0.168227,-1.740549 -0.06721,-0.136571 -0.817314,-1.799379 -0.817314,-1.799379 l -0.0604,-0.54309 -1.274799,-0.114788 -1.256136,0.88869 z"
       id="path1478"
       inkscape:connector-curvature="0" />
    <path
       style="fill:#1a1a1a;stroke:#000000;stroke-width:0.03841522px;stroke-linecap:butt;stroke-linejoin:miter;stroke-opacity:1"
       d="m 52.259505,68.786427 -0.55259,0.595834 -1.573202,-1.478051 c 0,0 -1.189087,-1.616862 -1.23664,-1.737536 -1.510447,-3.21866 -0.721744,-3.030519 2.092824,-3.619848 1.39932,-0.84571 2.963083,-0.88699 4.554145,-1.159438 l -2.461352,0.773329 c -1.625034,0.735928 -4.47957,0.509688 -4.23317,2.509785 0.857065,1.712184 1.909055,3.000672 3.409985,4.115925 z"
       id="path1480"
       inkscape:connector-curvature="0"
       sodipodi:nodetypes="ccccccccc" />
    <path
       style="fill:#000000;stroke:#000000;stroke-width:0.03841522px;stroke-linecap:butt;stroke-linejoin:miter;stroke-opacity:1"
       d="m 57.837299,90.645966 3.283763,0.787311 2.330635,0.07246 1.759846,-0.168938 1.945839,-0.722734 v 0 l -1.161015,-0.09764 c -2.52905,0.462181 -6.512327,-1.685117 -8.159068,0.129773 z"
       id="path1482"
       inkscape:connector-curvature="0"
       sodipodi:nodetypes="cccccccc" />
    <path
       style="fill:#000000;stroke:#000000;stroke-width:0.03841522px;stroke-linecap:butt;stroke-linejoin:miter;stroke-opacity:1"
       d="m 53.497936,62.724709 -0.456912,0.61771 c 16.119963,-4.620593 27.42848,-5.521951 29.770886,14.275152 l 0.470849,5.52878 0.201876,10.375008 -0.264307,3.537642 0.739944,1.296861 2.689415,-1.443181 -0.316542,-0.650137 -1.162064,-7.940399 -0.403598,-9.146388 C 85.405894,60.784556 74.949901,54.873855 58.735552,60.200418 l -4.582596,2.141272 z"
       id="path1484"
       inkscape:connector-curvature="0"
       sodipodi:nodetypes="cccccccccccccc" />
    <path
       style="fill:#000000;stroke:#000000;stroke-width:0.03841522px;stroke-linecap:butt;stroke-linejoin:miter;stroke-opacity:1"
       d="m 68.791764,101.83696 5.145806,-0.40953 c 10.719729,-0.75825 17.820227,-11.76234 27.8481,-6.245472 6.89936,-2.635852 11.91052,-0.87097 15.49243,0.953114 3.34575,0.368048 6.61312,1.138643 9.89563,1.854364 l -2.87709,0.208565 c -7.8636,-0.72054 -15.21468,-2.922173 -23.78903,-1.548499 -8.380529,-3.409645 -17.340937,3.361598 -24.06438,4.897428 l -3.211909,0.49485 -2.522485,0.20476 z"
       id="path1486"
       inkscape:connector-curvature="0"
       sodipodi:nodetypes="ccccccccccc" />
    <path
       style="fill:#000000;stroke:#000000;stroke-width:0.03841522px;stroke-linecap:butt;stroke-linejoin:miter;stroke-opacity:1"
       d="m 113.99441,96.410578 c 10.91419,-8.26369 26.63038,-4.829481 41.2819,-6.750262 l -4.99196,-1.065136 -9.41723,0.61431 -5.23088,0.108918 c -18.28203,-1.286 -22.53419,4.750829 -25.35598,7.071824 v 0 z"
       id="path1488"
       inkscape:connector-curvature="0"
       sodipodi:nodetypes="cccccccc" />
    <path
       style="fill:#000000;stroke:#000000;stroke-width:0.03841522px;stroke-linecap:butt;stroke-linejoin:miter;stroke-opacity:1"
       d="m 151.41302,87.682899 c 2.78606,-1.600409 5.65033,-1.550044 8.75944,-1.749727 0,0 2.62454,-0.752612 3.82341,-0.302373 1.24319,0.46694 2.8083,2.857317 2.8083,2.857317 3.24478,3.847787 -0.14862,6.269403 -2.86402,8.695515 3.45722,-1.513491 6.44607,-4.021654 5.95564,-6.796069 -1.44946,-4.041074 -2.62393,-5.380807 -6.28216,-6.902795 -5.46618,1.221253 -9.60431,0.896586 -13.32928,5.110413 z"
       id="path1490"
       inkscape:connector-curvature="0"
       sodipodi:nodetypes="ccscccccc" />
    <path
       style="fill:#000000;stroke:#000000;stroke-width:0.03841522px;stroke-linecap:butt;stroke-linejoin:miter;stroke-opacity:1"
       d="m 156.43397,93.26867 -0.50843,0.602878 c 4.17641,0.282722 9.68709,1.625977 12.78205,-2.111332 l -0.32939,-0.375217 0.11541,-1.435132 c 0.39394,4.724272 -6.67664,3.780768 -9.54487,3.59499 z"
       id="path1492"
       inkscape:connector-curvature="0"
       sodipodi:nodetypes="ccccccc" />
    <path
       style="fill:#000000;stroke:#000000;stroke-width:0.03841522px;stroke-linecap:butt;stroke-linejoin:miter;stroke-opacity:1"
       d="m 93.34237,105.66179 -1.271741,1.25527 c 7.070169,5.80408 19.977671,2.55236 27.045511,-1.0004 2.86976,-0.92055 4.61762,-1.32581 7.52455,-0.96917 8.30147,-1.55617 17.31554,-4.31638 23.89237,-7.580924 l 3.74239,-3.761302 2.15852,-0.336501 -3.58545,0.04697 -6.18337,3.861168 c -6.57049,3.379349 -13.71563,4.709459 -20.82114,6.414359 -4.06743,-0.57731 -7.69658,0.81286 -11.57002,1.88719 -4.17069,-0.018 -19.575837,6.1122 -20.93162,0.1834"
       id="path1494"
       inkscape:connector-curvature="0"
       sodipodi:nodetypes="cccccccccccc" />
    <path
       style="fill:#000000;stroke:#000000;stroke-width:0.03841522px;stroke-linecap:butt;stroke-linejoin:miter;stroke-opacity:1"
       d="m 46.147515,103.30386 -1.827003,2.69717 -5.57434,0.19518 5.459922,4.9919 c 2.195176,10.19613 9.798672,13.65414 19.507098,12.42269 6.657969,-2.43728 13.78212,-2.3457 20.717867,-1.43335 l 3.283702,-1.00714 c -7.134177,-3.18658 -13.142117,-0.86927 -20.369206,0.32457 -12.945518,2.22384 -16.570079,-2.78252 -21.944427,-12.5415 z"
       id="path1496"
       inkscape:connector-curvature="0"
       sodipodi:nodetypes="cccccccccc" />
    <path
       style="fill:#000000;stroke:#000000;stroke-width:0.03841522px;stroke-linecap:butt;stroke-linejoin:miter;stroke-opacity:1"
       d="m 50.405512,121.26509 2.88148,2.27747 c 5.097892,6.94765 8.319735,14.25417 12.206285,21.3287 l 2.723248,3.25109 c -0.580924,-0.82414 -1.670162,1.79467 -2.275064,1.6968 -0.96881,-0.15674 -1.277117,-2.35224 -2.126535,-2.95817 -4.626246,-6.59794 -8.182637,-13.82373 -11.564582,-21.47348 l -0.09501,-1.3514 z"
       id="path1498"
       inkscape:connector-curvature="0"
       sodipodi:nodetypes="ccccscccc" />
    <path
       style="fill:#000000;stroke:#000000;stroke-width:0.03841522px;stroke-linecap:butt;stroke-linejoin:miter;stroke-opacity:1"
       d="m 74.520827,145.23431 -7.422384,3.45069 c -6.371832,11.3149 -2.704956,19.22674 9.052873,22.6988 3.156354,1.17338 6.958117,1.03699 10.443912,1.54179 l 7.974882,0.60727 4.053971,-0.33363 -3.467299,1.1836 c -6.332946,-0.64659 -12.725805,1.18198 -19.732974,-0.67471 -11.799757,-2.89155 -15.165032,-11.71784 -10.114826,-22.59961 1.561677,-4.50012 5.26679,-4.93904 9.211845,-5.8742 z"
       id="path1500"
       inkscape:connector-curvature="0"
       sodipodi:nodetypes="cccccccccc" />
    <path
       style="fill:#000000;stroke:#000000;stroke-width:0.03841522px;stroke-linecap:butt;stroke-linejoin:miter;stroke-opacity:1"
       d="m 117.53695,182.05387 8.56212,1.64599 8.20205,1.14807 -2.56682,1.33148 c -11.34043,0.003 -22.14198,-5.01342 -32.07071,-10.26082 -11.960956,-7.97376 14.43663,4.32078 17.87336,6.13528 z"
       id="path1502"
       inkscape:connector-curvature="0"
       sodipodi:nodetypes="cccccc" />
    <path
       style="fill:#1a1a1a;stroke:#000000;stroke-width:0.03841522px;stroke-linecap:butt;stroke-linejoin:miter;stroke-opacity:1"
       d="m 92.418239,154.29809 8.532971,0.22034 c 11.86875,5.88312 23.30244,11.05985 33.38299,19.76555 l 2.67972,1.76188 0.8379,-2.34124 c 0,0 0.82849,-0.58414 -0.94621,-2.03161 -9.8574,-9.55238 -23.34665,-12.40954 -34.87939,-19.01586 l -4.756406,0.0965 z"
       id="path1504"
       inkscape:connector-curvature="0"
       sodipodi:nodetypes="ccccccccc" />
    <path
       style="fill:#000000;stroke:#000000;stroke-width:0.03841522px;stroke-linecap:butt;stroke-linejoin:miter;stroke-opacity:1"
       d="m 144.05008,182.04686 0.76925,1.00267 2.06525,-1.95081 c 0.51081,-4.35774 -4.95124,-9.74117 -9.03276,-7.39418 l -2.47003,2.14581 -0.94171,2.38898 c 4.07434,-4.60101 7.99337,-0.63346 9.61,3.80753 z"
       id="path1506"
       inkscape:connector-curvature="0"
       sodipodi:nodetypes="ccccccc" />
    <path
       style="fill:#000000;stroke:#000000;stroke-width:0.03841522px;stroke-linecap:butt;stroke-linejoin:miter;stroke-opacity:1"
       d="m 134.30112,184.84793 c -3.974,11.06485 17.10328,22.965 23.42955,28.73936 0.26909,0.27304 4.67941,4.61712 4.67941,4.61712 0,0 5.16787,7.10103 4.96612,7.57883 -0.20189,0.47778 2.92758,0.92778 2.92758,0.92778 0,0 -3.52484,1.43435 -3.72664,0.8883 -0.20188,-0.54606 -4.0706,-7.45937 -4.0706,-7.45937 l -3.34518,-3.56144 c -4.66448,-8.20663 -26.16391,-12.4182 -28.01733,-27.48638 l 0.59027,-2.91272 z"
       id="path1508"
       inkscape:connector-curvature="0"
       sodipodi:nodetypes="ccccccccccc" />
    <path
       style="fill:#1a1a1a;stroke:#000000;stroke-width:0.03841522px;stroke-linecap:butt;stroke-linejoin:miter;stroke-opacity:1"
       d="m 144.81933,183.04953 c 5.60047,9.04875 7.55498,15.76098 12.83669,23.57888 22.61836,22.22961 4.96759,4.52639 0.64794,-3.93966 l -4.48039,-9.10319 c 0,0 -4.18564,-8.39806 -4.28077,-8.59113 -0.0952,-0.19298 -2.65822,-3.89571 -2.65822,-3.89571 z"
       id="path1510"
       inkscape:connector-curvature="0"
       sodipodi:nodetypes="ccccscc" />
    <path
       style="fill:#000000;stroke:#000000;stroke-width:0.03841522px;stroke-linecap:butt;stroke-linejoin:miter;stroke-opacity:1"
       d="m 92.933875,142.66839 c 8.053475,0.92142 15.899295,11.17918 21.744415,17.13185 -6.41969,-6.92561 -12.34231,-18.29717 -21.744415,-17.13185 z"
       id="path1512"
       inkscape:connector-curvature="0"
       sodipodi:nodetypes="ccc" />
    <path
       style="fill:#000000;stroke:#000000;stroke-width:0.03841522px;stroke-linecap:butt;stroke-linejoin:miter;stroke-opacity:1"
       d="m 99.59635,175.98684 c 0,0 4.18357,4.73638 4.18357,4.73638 l 6.50573,4.85767 2.98135,2.35781 -7.41585,-6.75045 -1.5038,-1.10436 -1.52226,-3.41447 z"
       id="path1514"
       inkscape:connector-curvature="0" />
    <path
       style="fill:#000000;stroke:#000000;stroke-width:0.03841522px;stroke-linecap:butt;stroke-linejoin:miter;stroke-opacity:1"
       d="m 128.178,186.11809 c -2.45935,6.78368 -6.36572,12.70268 -10.58211,18.4185 0,0 -7.10259,9.65905 -7.5062,9.93207 -0.40359,0.27301 -4.84305,5.20243 -4.84305,5.20243 4.48054,-8.15207 9.23979,-13.51728 14.26038,-21.29605 l 3.96873,-7.64475 2.73289,-4.79239 z"
       id="path1516"
       inkscape:connector-curvature="0"
       sodipodi:nodetypes="cccccccc" />
    <path
       style="fill:#000000;stroke:#000000;stroke-width:0.03841522px;stroke-linecap:butt;stroke-linejoin:miter;stroke-opacity:1"
       d="m 110.28565,185.58089 c -4.6731,3.40025 -6.69937,11.42488 -6.21711,16.63508 -2.18509,6.99203 -7.99648,21.36604 -12.675193,27.11995 -0.336362,0.34127 -1.5893,1.18324 -1.5893,1.18324 l 0.176647,-1.86582 c 5.629134,-6.68365 10.894496,-16.01564 11.350926,-23.59818 0.68849,-11.43719 2.1077,-18.12366 6.5252,-20.7619 l 3.44678,-0.12884"
       id="path1518"
       inkscape:connector-curvature="0"
       sodipodi:nodetypes="cccccscc" />
    <path
       style="fill:#000000;stroke:#000000;stroke-width:0.03841522px;stroke-linecap:butt;stroke-linejoin:miter;stroke-opacity:1"
       d="m 100.78609,227.08141 1.59002,-2.10081 0.001,1.78523 4.27619,-0.80328 9.83271,0.40239 c 10.08863,11.12016 -19.606083,11.69992 -25.932635,11.60809 l -3.020864,-0.52348 c 0,0 -1.437666,-2.65436 -1.236685,-4.05423 0.114942,-0.80199 1.332116,-2.021 1.332116,-2.021 l 2.174195,-0.85516 -1.076198,3.11639 v 0 l 1.517707,2.94524 c 9.218353,0.14213 17.703034,-1.1595 26.255414,-4.58516 1.45433,-2.92345 -1.01762,-4.0582 -1.23664,-4.19901 l -7.65785,-0.38614 -5.97574,0.37491 -1.30974,1.48266 z"
       id="path1520"
       inkscape:connector-curvature="0"
       sodipodi:nodetypes="cccccccsccccccccccc" />
    <g
       id="g1704"
       transform="matrix(0.14413378,0,0,0.14625678,-77.097481,173.55204)">
      <path
         sodipodi:nodetypes="ccccccccccc"
         inkscape:connector-curvature="0"
         id="path1522"
         d="m 1718.0599,370.08832 16.1909,-2.70323 25.8502,-31.49115 37.3352,-61.13647 c 8.3095,-22.51299 26.3903,-60.04386 -4.3908,-71.4508 26.5503,-20.76889 40.8961,11.41833 25.3919,37.84909 l -18.2009,49.93588 -26.9062,44.33316 -25.8299,23.80364 -15.9437,8.50744 z"
         style="fill:#000000;stroke:#000000;stroke-width:0.26458332px;stroke-linecap:butt;stroke-linejoin:miter;stroke-opacity:1" />
      <path
         sodipodi:nodetypes="cccccccccccccccccc"
         inkscape:connector-curvature="0"
         id="path1524"
         d="m 1700.2783,267.63854 26.5108,29.86455 -2.5221,2.72896 -12.2351,-4.9402 -18.8586,-20.86745 12.2418,-12.06827 h 2e-4 l 14.3047,3.80795 14.2463,-6.80739 21.9345,-15.40079 21.9344,-26.13466 14.9567,-14.87121 10.6746,4.21852 -13.0306,7.85254 -17.7343,17.26755 -18.6676,17.26755 c -12.7356,12.82927 -20.2448,24.98345 -39.5672,22.86415 z"
         style="fill:#000000;stroke:#000000;stroke-width:0.26458332px;stroke-linecap:butt;stroke-linejoin:miter;stroke-opacity:1" />
    </g>
    <path
       style="fill:#000000;stroke:#000000;stroke-width:0.03841522px;stroke-linecap:butt;stroke-linejoin:miter;stroke-opacity:1"
       d="m 95.919973,111.75136 c -0.158194,0.99445 -0.269313,3.00965 -0.269313,3.00965 -3.877491,7.66892 -7.736417,15.94685 -5.617731,24.83166 l 0.752675,1.52355 2.148271,1.55217 c -2.274214,-7.40245 0.913902,-18.30569 4.730003,-27.33104 1.215508,-2.05145 -0.944881,-8.38778 -1.743905,-3.58599 z"
       id="path1526"
       inkscape:connector-curvature="0"
       sodipodi:nodetypes="ccccccc" />
    <path
       style="fill:#000000;stroke:#000000;stroke-width:0.03841522px;stroke-linecap:butt;stroke-linejoin:miter;stroke-opacity:1"
       d="m 17.905145,91.052406 6.524779,3.822389 c 0,0 4.103211,1.092111 4.372276,1.22862 0.269096,0.136573 6.524796,0.750806 6.524796,0.750806 H 30.14754 l -6.793875,-1.979426 z"
       id="path1528"
       inkscape:connector-curvature="0" />
    <path
       style="fill:#000000;stroke:#000000;stroke-width:0.03841522px;stroke-linecap:butt;stroke-linejoin:miter;stroke-opacity:1"
       d="m 60.651713,68.001418 2.134073,-0.145533 c 3.526891,0.494115 6.272339,2.662918 9.179897,4.585137 l 0.910813,0.453761 0.08976,-0.0944 -0.619998,-0.721433 C 71.312947,68.89726 63.580943,64.026281 60.651817,68.001246 Z"
       id="path1530"
       inkscape:connector-curvature="0"
       sodipodi:nodetypes="cccccccc" />
    <path
       style="fill:#000000;stroke:#000000;stroke-width:0.03841522px;stroke-linecap:butt;stroke-linejoin:miter;stroke-opacity:1"
       d="m 76.943849,75.43834 c 3.110099,8.910878 -5.791479,16.92582 -5.917236,25.01622 l -0.311056,0.64925 -0.416559,-0.009 c -1.929603,-6.410349 3.139205,-15.239963 5.162646,-21.873475 l 0.996016,-3.381513 z"
       id="path1532"
       inkscape:connector-curvature="0"
       sodipodi:nodetypes="ccccccc" />
    <path
       style="fill:#000000;stroke:#000000;stroke-width:0.03841522px;stroke-linecap:butt;stroke-linejoin:miter;stroke-opacity:1"
       d="m 72.694056,126.37173 c -0.117879,7.86056 1.818012,9.95791 7.28847,14.77239 l 5.914965,4.90231 c 0,0 -5.867876,-6.11797 -8.492279,-9.44541 -2.64319,-2.91077 -3.489132,-6.57516 -4.711156,-10.22929 z"
       id="path1534"
       inkscape:connector-curvature="0"
       sodipodi:nodetypes="ccccc" />
    <path
       style="fill:#1a1a1a;stroke:#000000;stroke-width:0.03841522px;stroke-linecap:butt;stroke-linejoin:miter;stroke-opacity:1"
       d="m 66.043488,132.54742 6.390248,0.47782 2.88976,-0.527 3.067891,-2.5339 -2.61603,2.79934 -2.616014,0.60331 z"
       id="path1536"
       inkscape:connector-curvature="0" />
    <path
       style="display:inline;fill:#1a1a1a;stroke:#000000;stroke-width:0.03841522px;stroke-linecap:butt;stroke-linejoin:miter;stroke-opacity:1"
       d="m 70.72254,139.52842 6.341783,-0.9296 2.710147,-1.14601 2.458262,-3.14476 -1.960702,3.30525 -2.426622,1.16072 z"
       id="path1536-9"
       inkscape:connector-curvature="0" />
    <ellipse
       style="display:inline;fill:none;fill-opacity:1;stroke:#000000;stroke-width:0.4079878;stroke-linecap:butt;stroke-linejoin:round;stroke-miterlimit:4;stroke-dasharray:none;stroke-opacity:1;paint-order:normal"
       id="path1553-6"
       cx="114.03611"
       cy="191.82579"
       rx="8.3014164"
       ry="8.4705763" />
    <ellipse
       style="display:inline;fill:none;fill-opacity:1;stroke:#000000;stroke-width:0.72131085;stroke-linecap:butt;stroke-linejoin:round;stroke-miterlimit:4;stroke-dasharray:none;stroke-opacity:1;paint-order:normal"
       id="path1553-2"
       cx="138.57922"
       cy="179.30128"
       rx="4.0005479"
       ry="4.0820689" />
    <ellipse
       style="display:inline;fill:none;fill-opacity:1;stroke:#000000;stroke-width:0.7343781;stroke-linecap:butt;stroke-linejoin:round;stroke-miterlimit:4;stroke-dasharray:none;stroke-opacity:1;paint-order:normal"
       id="path1553-5"
       cx="163.27577"
       cy="90.8694"
       rx="5.6111598"
       ry="5.7255006" />
    <path
       style="fill:#000000;fill-opacity:1;stroke:#000000;stroke-width:0.22649856;stroke-linecap:butt;stroke-linejoin:round;stroke-miterlimit:4;stroke-dasharray:none;stroke-opacity:1;paint-order:normal"
       id="path1652"
       d="m 57.093121,97.609105 c 0.463927,0.379373 1.00782,0.626237 1.557568,0.846497 0.936505,0.3249 1.889619,0.594134 2.823978,0.926387 1.22862,0.452371 2.394888,1.055021 3.557294,1.656321 1.445173,0.79517 2.966342,1.41546 4.525115,1.93645 1.565988,0.50686 3.180254,0.8219 4.805427,1.05166 0.951878,0.10177 0.48242,0.059 1.408204,0.12963 0,0 -0.0031,0.003 -0.0031,0.003 v 0 c -0.933076,-0.0631 -0.459585,-0.0247 -1.420284,-0.11587 -1.630998,-0.20967 -3.245652,-0.53614 -4.814528,-1.0422 -1.559251,-0.5212 -3.081131,-1.14104 -4.527742,-1.93453 -1.163285,-0.60021 -2.330897,-1.20071 -3.560074,-1.652431 -0.933524,-0.331851 -1.885742,-0.601951 -2.820008,-0.931006 -0.549578,-0.222362 -1.092187,-0.471327 -1.560765,-0.844938 0,0 0.02966,-0.0309 0.02966,-0.0309 z"
       inkscape:connector-curvature="0" />
    <path
       style="fill:#000000;fill-opacity:1;stroke:#000000;stroke-width:0.22649856;stroke-linecap:butt;stroke-linejoin:round;stroke-miterlimit:4;stroke-dasharray:none;stroke-opacity:1;paint-order:normal"
       id="path1654"
       d="m 61.434514,105.32268 c 0.652702,-0.48534 1.376702,-0.84783 2.111409,-1.18432 1.202079,-0.50192 2.426946,-0.9454 3.6433,-1.41002 1.426852,-0.57862 2.891244,-1.04393 4.374161,-1.44749 1.654435,-0.42132 3.316825,-0.80939 4.972959,-1.22374 1.611671,-0.393248 3.210056,-0.835052 4.777125,-1.383966 1.432783,-0.518154 2.777938,-1.242155 4.088487,-2.017848 0.80069,-0.508946 0.408634,-0.249306 1.176587,-0.778166 0,0 -0.0016,0.0031 -0.0016,0.0031 v 0 c -0.772265,0.531796 -0.376901,0.267628 -1.186769,0.791592 -1.312526,0.789274 -2.663398,1.519871 -4.105311,2.038535 -1.566065,0.547817 -3.163569,0.98823 -4.774329,1.379733 -1.655871,0.4132 -3.317969,0.80046 -4.971739,1.22233 -1.483132,0.40434 -2.947541,0.87078 -4.374855,1.44915 -1.210638,0.46087 -2.430715,0.89741 -3.62867,1.39149 -0.737395,0.3356 -1.462909,0.69979 -2.115009,1.18976 0,0 0.01606,-0.0222 0.01606,-0.0222 z"
       inkscape:connector-curvature="0" />
    <path
       style="fill:#1a1a1a;stroke:#000000;stroke-width:0.03841522px;stroke-linecap:butt;stroke-linejoin:miter;stroke-opacity:1"
       d="m 42.324941,96.880454 c 10.870468,4.629286 4.031387,26.698116 18.665823,25.611546 l -4.652489,-1.2383 c -3.06667,-3.0077 -4.195798,-5.81003 -5.177833,-10.0261 -0.385707,-6.52021 -1.568954,-12.143427 -8.835501,-14.347146 z"
       id="path1712"
       inkscape:connector-curvature="0"
       sodipodi:nodetypes="ccccc" />
    <path
       style="fill:#000000;stroke:#000000;stroke-width:0.03841522px;stroke-linecap:butt;stroke-linejoin:miter;stroke-opacity:1"
       d="m 88.35118,119.21113 c 5.565393,-4.30555 0.853774,-12.58562 4.685912,-16.48452 l 0.707222,-1.24671 c -5.32766,4.57505 -0.841106,11.86358 -4.476296,16.88297 z"
       id="path1756"
       inkscape:connector-curvature="0"
       sodipodi:nodetypes="ccccc" />
    <g
       id="g1915"
       transform="matrix(-0.14413378,0,0,0.14625678,420.04811,158.02599)">
      <path
         sodipodi:nodetypes="cccccc"
         inkscape:connector-curvature="0"
         id="path1848-2"
         d="m 1634.5071,-573.26095 149.7908,11.84461 83.7962,-97.01624 -52.304,384.10591 -31.4922,-287.08967 z"
         style="display:inline;fill:none;stroke:#808080;stroke-width:7.61390686;stroke-linecap:round;stroke-linejoin:miter;stroke-miterlimit:4;stroke-dasharray:none;stroke-opacity:1" />
      <path
         inkscape:connector-curvature="0"
         id="path1850-9"
         d="m 1634.5071,-573.26095 233.587,-85.17163 -83.7962,97.01624 31.4922,287.08967 z"
         style="display:inline;fill:none;stroke:#808080;stroke-width:10.70271397;stroke-linecap:round;stroke-linejoin:miter;stroke-miterlimit:4;stroke-dasharray:none;stroke-opacity:1" />
    </g>
    <path
       style="display:inline;fill:none;stroke:#808080;stroke-width:1.03174818;stroke-linecap:round;stroke-linejoin:miter;stroke-miterlimit:4;stroke-dasharray:none;stroke-opacity:1"
       d="m 87.839469,242.86713 18.774361,7.59945 4.33236,16.93774 16.55866,-50.17679 -20.89102,33.23905 z"
       id="path1848-4"
       inkscape:connector-curvature="0"
       sodipodi:nodetypes="cccccc" />
    <path
       style="fill:none;stroke:#808080;stroke-width:1.30164087;stroke-linecap:round;stroke-linejoin:miter;stroke-miterlimit:4;stroke-dasharray:none;stroke-opacity:1;paint-order:stroke fill markers"
       d="m 188.01978,197.64175 c 0,0 -16.627,40.70934 -17.38976,40.86414 -0.76269,0.15461 36.45747,-6.65591 36.45747,-6.65591 z"
       id="path1925"
       inkscape:connector-curvature="0" />
    <path
       style="fill:none;stroke:#808080;stroke-width:1.30164087;stroke-linecap:round;stroke-linejoin:miter;stroke-miterlimit:4;stroke-dasharray:none;stroke-opacity:1;paint-order:stroke fill markers"
       d="m 170.56689,238.51647 14.64546,30.4796 21.87514,-37.14609 z"
       id="path1931"
       inkscape:connector-curvature="0"
       sodipodi:nodetypes="cccc" />
  </g>
</svg>
